<?xml version="1.0" encoding="UTF-8"?>
<svg id="Layer_1" xmlns="http://www.w3.org/2000/svg" version="1.1" viewBox="0 0 512 512">
  <!-- Generator: Adobe Illustrator 30.0.0, SVG Export Plug-In . SVG Version: 2.1.1 Build 123)  -->
  <defs>
    <style>
      .st0 {
        fill: #fff;
      }
    </style>
  </defs>
  <g id="Layer_4">
    <g>
      <path class="st0" d="M256.05,288.13c-2.79,0-5.6-.37-8.37-1.11-8.29-2.22-15.21-7.54-19.5-14.97h0c-8.86-15.34-3.58-35.02,11.75-43.87,15.34-8.85,35.02-3.58,43.88,11.76,8.85,15.34,3.58,35.02-11.76,43.87-4.95,2.86-10.44,4.32-16.01,4.32h.01ZM255.97,239.97c-2.72,0-5.47.69-7.99,2.14-7.65,4.42-10.29,14.24-5.87,21.9h0c2.14,3.71,5.6,6.36,9.73,7.47,4.14,1.11,8.46.54,12.16-1.6,7.66-4.42,10.29-14.24,5.87-21.9-2.97-5.14-8.37-8.01-13.91-8.01h.01Z"/>
      <path class="st0" d="M233.09,224.37c-.78,0-1.57-.11-2.33-.34l-31.71-9.59c-2.61-.79-4.64-2.85-5.4-5.47l-26.18-90.68c-1.03-3.55.5-7.35,3.71-9.2,3.2-1.85,7.25-1.28,9.82,1.39l65.44,68.01c1.89,1.97,2.66,4.75,2.03,7.41l-7.55,32.26c-.51,2.16-1.89,4.02-3.81,5.13-1.24.71-2.62,1.08-4.02,1.08h0ZM207.9,200.31l19.32,5.84,4.6-19.65-39.87-41.44,15.95,55.25h0Z"/>
      <path class="st0" d="M186.03,286.71c-.64,0-1.29-.08-1.93-.24l-91.62-22.67c-3.59-.89-6.11-4.11-6.11-7.81s2.52-6.92,6.11-7.81l91.62-22.67c2.65-.66,5.45.07,7.44,1.94l24.16,22.67c1.62,1.52,2.54,3.64,2.54,5.87s-.92,4.35-2.54,5.87l-24.16,22.67c-1.51,1.42-3.48,2.18-5.5,2.18h-.01ZM127.89,256l55.82,13.81,14.72-13.81-14.72-13.81s-55.82,13.81-55.82,13.81Z"/>
      <path class="st0" d="M175.2,403.99c-1.38,0-2.76-.35-4.02-1.08-3.2-1.85-4.73-5.64-3.71-9.2l26.18-90.68c.76-2.62,2.79-4.68,5.4-5.47l31.71-9.59c2.12-.64,4.42-.38,6.35.73,1.92,1.11,3.3,2.97,3.81,5.13l7.55,32.26c.62,2.66-.14,5.45-2.03,7.41l-65.44,68.01c-1.56,1.62-3.67,2.47-5.8,2.47h0ZM207.9,311.7l-15.95,55.25,39.87-41.44-4.6-19.65-19.32,5.84Z"/>
      <path class="st0" d="M336.8,403.99c-2.13,0-4.24-.85-5.8-2.47l-65.44-68.01c-1.89-1.97-2.66-4.75-2.04-7.41l7.55-32.26c.51-2.16,1.89-4.02,3.81-5.13,1.93-1.11,4.22-1.37,6.35-.73l31.71,9.59c2.61.79,4.64,2.85,5.4,5.47l26.18,90.68c1.03,3.55-.5,7.35-3.71,9.2-1.26.72-2.64,1.08-4.02,1.08h.01ZM280.18,325.51l39.87,41.44-15.95-55.25-19.32-5.84-4.6,19.65h0Z"/>
      <path class="st0" d="M325.97,286.71c-2.02,0-3.99-.76-5.5-2.18l-24.16-22.67c-1.62-1.52-2.54-3.64-2.54-5.87s.92-4.35,2.54-5.87l24.16-22.67c1.99-1.87,4.79-2.6,7.44-1.94l91.62,22.67c3.59.89,6.11,4.11,6.11,7.81s-2.52,6.92-6.11,7.81l-91.62,22.67c-.64.16-1.29.24-1.93.24h-.01ZM313.56,256l14.72,13.81,55.82-13.81-55.82-13.81-14.72,13.81Z"/>
      <path class="st0" d="M278.9,224.37c-1.4,0-2.79-.37-4.02-1.08-1.92-1.11-3.3-2.97-3.81-5.13l-7.55-32.26c-.62-2.66.14-5.45,2.04-7.41l65.44-68.01c2.56-2.67,6.61-3.24,9.82-1.39,3.2,1.85,4.73,5.64,3.71,9.2l-26.18,90.68c-.76,2.62-2.79,4.68-5.4,5.47l-31.71,9.59c-.76.23-1.55.34-2.33.34h-.01ZM280.18,186.49l4.6,19.65,19.32-5.84,15.95-55.25-39.87,41.44h0Z"/>
      <g>
        <g>
          <path class="st0" d="M256.29,147.43h-.03c-4.44-.02-8.03-3.63-8.01-8.07l.39-106.87c.02-4.43,3.62-8.01,8.04-8.01h.03c4.44.02,8.03,3.63,8.01,8.07l-.39,106.87c-.02,4.43-3.62,8.01-8.04,8.01h0Z"/>
          <path class="st0" d="M256.37,149.39c-2.06,0-4.12-.79-5.69-2.36l-37.41-37.41c-3.14-3.14-3.14-8.23,0-11.37,3.14-3.14,8.24-3.14,11.37,0l31.72,31.72,30.99-30.99c3.14-3.14,8.24-3.14,11.37,0,3.14,3.14,3.14,8.23,0,11.37l-36.68,36.68c-1.57,1.57-3.63,2.36-5.69,2.36h.02Z"/>
          <path class="st0" d="M257.17,97.17c-2.13,0-4.18-.85-5.69-2.36l-18.58-18.58c-3.14-3.14-3.14-8.23,0-11.37,3.14-3.14,8.24-3.14,11.37,0l12.89,12.89,13.42-13.42c3.14-3.14,8.23-3.14,11.37,0,3.14,3.14,3.14,8.23,0,11.37l-19.1,19.11c-1.51,1.51-3.55,2.36-5.69,2.36h.01Z"/>
        </g>
        <path class="st0" d="M240.65,11.79c4.9-8.48,15.75-11.39,24.23-6.49s11.39,15.75,6.49,24.23c-4.9,8.48-15.75,11.39-24.23,6.49-8.48-4.9-11.39-15.75-6.49-24.23Z"/>
      </g>
      <g>
        <g>
          <path class="st0" d="M155.14,205.49c-1.37,0-2.77-.35-4.04-1.09l-92.36-53.77c-3.84-2.23-5.14-7.16-2.9-11,2.24-3.84,7.17-5.13,11-2.9l92.36,53.77c3.84,2.23,5.14,7.16,2.9,11-1.49,2.57-4.19,4-6.96,4h0Z"/>
          <path class="st0" d="M105.79,220.09c-3.55,0-6.8-2.37-7.76-5.96-1.15-4.29,1.4-8.7,5.69-9.85l43.33-11.61-11.34-42.33c-1.15-4.29,1.4-8.7,5.69-9.85,4.29-1.16,8.7,1.4,9.85,5.69l13.43,50.1c.55,2.06.26,4.26-.8,6.1-1.07,1.85-2.82,3.19-4.88,3.75l-51.1,13.69c-.7.19-1.4.28-2.09.28h-.02Z"/>
          <path class="st0" d="M86.69,186.39c-3.55,0-6.8-2.37-7.76-5.96-1.15-4.29,1.4-8.7,5.69-9.85l17.61-4.72-4.91-18.33c-1.15-4.29,1.4-8.7,5.69-9.85,4.28-1.16,8.7,1.4,9.85,5.69l6.99,26.1c1.15,4.29-1.4,8.7-5.69,9.85l-25.38,6.8c-.7.19-1.4.28-2.09.28h0Z"/>
        </g>
        <circle class="st0" cx="52.21" cy="138.32" r="17.74"/>
      </g>
      <g>
        <g>
          <path class="st0" d="M62.13,375.2c-2.79,0-5.5-1.45-6.99-4.05-2.21-3.85-.87-8.77,2.98-10.98l92.74-53.1c3.86-2.2,8.77-.87,10.98,2.98,2.21,3.85.87,8.77-2.98,10.98l-92.74,53.1c-1.26.72-2.63,1.06-3.99,1.06h0Z"/>
          <path class="st0" d="M142.83,372.15c-.69,0-1.39-.09-2.09-.28-4.29-1.15-6.84-5.56-5.69-9.85l11.61-43.33-42.33-11.34c-4.29-1.15-6.84-5.56-5.69-9.85,1.15-4.29,5.56-6.85,9.85-5.69l50.1,13.43c2.06.55,3.82,1.9,4.88,3.75,1.07,1.85,1.36,4.04.8,6.1l-13.69,51.1c-.96,3.59-4.21,5.96-7.76,5.96h0Z"/>
          <path class="st0" d="M104.1,371.84c-.69,0-1.39-.09-2.09-.28-4.29-1.15-6.84-5.56-5.69-9.85l4.72-17.61-18.33-4.91c-4.29-1.15-6.84-5.56-5.69-9.85s5.56-6.86,9.85-5.69l26.1,6.99c2.06.55,3.82,1.9,4.88,3.75,1.07,1.85,1.36,4.04.8,6.1l-6.8,25.38c-.96,3.59-4.21,5.96-7.76,5.96h.01Z"/>
        </g>
        <circle class="st0" cx="52.19" cy="373.66" r="17.74" transform="translate(-139.02 48.42) rotate(-22.5)"/>
      </g>
      <g>
        <g>
          <path class="st0" d="M255.32,487.52h-.03c-4.44-.02-8.03-3.63-8.01-8.07l.39-106.87c.02-4.43,3.62-8.01,8.04-8.01h.03c4.44.02,8.03,3.63,8.01,8.07l-.39,106.87c-.02,4.43-3.61,8.01-8.04,8.01h0Z"/>
          <path class="st0" d="M293.04,416.1c-2.06,0-4.12-.79-5.69-2.36l-31.72-31.72-30.99,30.99c-3.14,3.14-8.23,3.14-11.37,0s-3.14-8.23,0-11.37l36.68-36.68c3.02-3.02,8.36-3.02,11.37,0l37.41,37.41c3.14,3.14,3.14,8.23,0,11.37-1.57,1.57-3.63,2.36-5.69,2.36Z"/>
          <path class="st0" d="M235.72,450.02c-2.06,0-4.12-.79-5.69-2.36-3.14-3.14-3.14-8.23,0-11.37l19.11-19.1c3.14-3.14,8.23-3.14,11.37,0l18.58,18.58c3.14,3.14,3.14,8.23,0,11.37-3.14,3.14-8.24,3.14-11.37,0l-12.89-12.89-13.42,13.42c-1.57,1.57-3.63,2.36-5.69,2.36h0Z"/>
        </g>
        <path class="st0" d="M271.35,500.21c-4.9,8.48-15.75,11.39-24.23,6.49-8.48-4.9-11.39-15.75-6.49-24.23s15.75-11.39,24.23-6.49c8.48,4.9,11.39,15.75,6.49,24.23Z"/>
      </g>
      <g>
        <g>
          <path class="st0" d="M449.19,376.37c-1.37,0-2.77-.35-4.04-1.09l-92.36-53.77c-3.84-2.23-5.14-7.16-2.9-11,2.24-3.84,7.17-5.13,11-2.9l92.36,53.77c3.84,2.23,5.14,7.16,2.9,11-1.49,2.57-4.19,4-6.96,4h0Z"/>
          <path class="st0" d="M368.52,371.8c-3.55,0-6.8-2.37-7.76-5.96l-13.42-50.1c-1.15-4.29,1.4-8.7,5.69-9.85l51.1-13.69c4.28-1.16,8.7,1.4,9.85,5.69s-1.4,8.7-5.69,9.85l-43.33,11.61,11.34,42.33c1.15,4.29-1.4,8.7-5.69,9.85-.7.19-1.4.28-2.09.28h0Z"/>
          <path class="st0" d="M406.91,374.6c-3.55,0-6.8-2.37-7.76-5.96l-6.99-26.1c-1.15-4.29,1.4-8.7,5.69-9.85l25.38-6.8c4.28-1.16,8.7,1.39,9.85,5.69,1.15,4.29-1.4,8.7-5.69,9.85l-17.61,4.72,4.91,18.33c1.15,4.29-1.4,8.7-5.69,9.85-.7.19-1.4.28-2.09.28h0Z"/>
        </g>
        <path class="st0" d="M475.17,364.81c4.9,8.48,1.99,19.33-6.49,24.23-8.48,4.9-19.33,1.99-24.23-6.49-4.9-8.48-1.99-19.33,6.49-24.23s19.33-1.99,24.23,6.49Z"/>
      </g>
      <g>
        <g>
          <path class="st0" d="M357.14,205.99c-2.79,0-5.5-1.45-6.99-4.05-2.21-3.85-.87-8.77,2.98-10.98l92.74-53.1c3.86-2.2,8.77-.87,10.98,2.98,2.21,3.85.87,8.77-2.98,10.98l-92.74,53.1c-1.26.72-2.63,1.06-3.99,1.06h0Z"/>
          <path class="st0" d="M405.58,220.47c-.69,0-1.39-.09-2.09-.28l-50.1-13.42c-2.06-.55-3.82-1.9-4.88-3.75-1.07-1.85-1.36-4.04-.8-6.1l13.69-51.1c1.15-4.29,5.56-6.85,9.85-5.69,4.29,1.15,6.84,5.56,5.69,9.85l-11.61,43.33,42.33,11.34c4.29,1.15,6.84,5.56,5.69,9.85-.96,3.59-4.21,5.96-7.76,5.96h-.01Z"/>
          <path class="st0" d="M427.21,188.62c-.69,0-1.39-.09-2.09-.28l-26.1-6.99c-4.29-1.15-6.84-5.56-5.69-9.85l6.8-25.38c1.15-4.29,5.55-6.85,9.85-5.69,4.29,1.15,6.84,5.56,5.69,9.85l-4.72,17.61,18.33,4.91c4.29,1.15,6.84,5.56,5.69,9.85-.96,3.59-4.21,5.96-7.76,5.96h0Z"/>
        </g>
        <circle class="st0" cx="459.81" cy="138.34" r="17.74"/>
      </g>
    </g>
  </g>
</svg>