<?xml version="1.0" encoding="UTF-8"?>
<svg id="Layer_1" xmlns="http://www.w3.org/2000/svg" version="1.1" viewBox="0 0 512 512">
  <!-- Generator: Adobe Illustrator 30.0.0, SVG Export Plug-In . SVG Version: 2.1.1 Build 123)  -->
  <defs>
    <style>
      .st0 {
        fill: #fff;
      }
    </style>
  </defs>
  <g id="Layer_8">
    <g>
      <path class="st0" d="M256.07,299.93c-3.81,0-7.65-.5-11.44-1.51-11.33-3.04-20.8-10.3-26.67-20.46h0c-5.87-10.16-7.42-22-4.39-33.32,3.04-11.33,10.31-20.8,20.46-26.67,20.97-12.11,47.88-4.89,59.99,16.08s4.9,47.89-16.07,59.99c-6.77,3.91-14.28,5.9-21.89,5.9h.01ZM255.95,229.24c-4.54,0-9.13,1.16-13.34,3.58-6.19,3.58-10.62,9.34-12.47,16.25s-.9,14.12,2.68,20.31h0c3.58,6.19,9.35,10.62,16.25,12.47,6.91,1.86,14.12.9,20.31-2.68,12.78-7.38,17.18-23.78,9.8-36.57-4.95-8.58-13.97-13.38-23.23-13.38v.02Z"/>
      <g>
        <path class="st0" d="M157.66,156.06c-1.01,0-2.03-.18-3.03-.56-4.43-1.67-6.66-6.62-4.99-11.05,2.28-6.03,6.61-11.12,12.19-14.34,6.52-3.76,13.96-4.6,20.75-2.91,2.01-7.01,6.58-12.87,12.92-16.52,5.58-3.22,12.15-4.43,18.51-3.39,4.67.76,7.85,5.16,7.09,9.84-.76,4.67-5.18,7.88-9.84,7.08-2.5-.4-4.98.05-7.18,1.32-5.19,2.99-6.97,9.65-3.97,14.84.78,1.35,1.15,2.83,1.15,4.28,0,2.96-1.54,5.84-4.29,7.44-4.1,2.37-9.35.96-11.71-3.14-3-5.19-9.66-6.97-14.84-3.98-2.78,1.6-4.1,3.9-4.73,5.55-1.3,3.43-4.56,5.55-8.02,5.55h0Z"/>
        <path class="st0" d="M220.66,201.68c-2.96,0-5.85-1.54-7.43-4.29l-29.86-51.71c-2.37-4.1-.96-9.34,3.14-11.71,4.1-2.37,9.35-.96,11.71,3.14l29.86,51.71c2.37,4.1.96,9.34-3.14,11.71-1.35.78-2.82,1.15-4.28,1.15h0Z"/>
      </g>
      <g>
        <path class="st0" d="M112.86,295.48c-2.48,0-4.95-1.08-6.64-3.15-4.08-4.99-6.32-11.28-6.32-17.73,0-7.54,3-14.4,7.86-19.44-4.86-5.04-7.86-11.9-7.86-19.44,0-6.45,2.25-12.74,6.32-17.73,3-3.67,8.4-4.2,12.07-1.21,3.67,3,4.21,8.4,1.21,12.07-1.6,1.96-2.45,4.33-2.45,6.87,0,5.99,4.87,10.86,10.86,10.86,4.73,0,8.57,3.84,8.57,8.57s-3.84,8.57-8.57,8.57c-5.99,0-10.86,4.87-10.86,10.86,0,2.54.85,4.91,2.45,6.87,3,3.67,2.45,9.07-1.21,12.07-1.59,1.3-3.51,1.93-5.42,1.93v.03Z"/>
        <path class="st0" d="M183.86,263.74h-59.71c-4.73,0-8.57-3.84-8.57-8.57s3.84-8.57,8.57-8.57h59.71c4.73,0,8.57,3.84,8.57,8.57s-3.84,8.57-8.57,8.57h0Z"/>
      </g>
      <g>
        <path class="st0" d="M208.08,404.24c-4.89,0-9.75-1.28-14.02-3.75-6.53-3.77-10.97-9.8-12.9-16.53-6.79,1.69-14.23.86-20.77-2.91-5.59-3.23-9.92-8.33-12.19-14.35-1.67-4.43.56-9.37,4.99-11.05,4.44-1.68,9.38.57,11.05,4.99.89,2.36,2.53,4.28,4.73,5.56,5.17,2.99,11.84,1.21,14.84-3.98,2.37-4.1,7.61-5.51,11.71-3.14,2.75,1.59,4.29,4.48,4.29,7.44,0,1.45-.37,2.93-1.15,4.27-3,5.19-1.21,11.85,3.98,14.85,2.19,1.26,4.67,1.71,7.17,1.31,4.64-.77,9.08,2.4,9.84,7.08.77,4.67-2.4,9.08-7.08,9.85-1.49.24-3,.36-4.49.36h0Z"/>
        <path class="st0" d="M189.34,378.34c-1.45,0-2.93-.37-4.28-1.15-4.1-2.37-5.51-7.61-3.14-11.71l29.85-51.71c2.37-4.1,7.61-5.51,11.71-3.14s5.51,7.61,3.14,11.71l-29.85,51.71c-1.59,2.75-4.47,4.29-7.43,4.29h0Z"/>
      </g>
      <g>
        <path class="st0" d="M302.46,405.08c-1.49,0-2.99-.12-4.48-.36-4.67-.76-7.85-5.16-7.09-9.84.76-4.67,5.16-7.89,9.84-7.08,1.74.28,4.41.28,7.18-1.32,2.51-1.45,4.31-3.79,5.06-6.59.75-2.81.36-5.73-1.09-8.25-.78-1.35-1.15-2.82-1.15-4.27,0-2.96,1.54-5.85,4.29-7.44,4.1-2.37,9.34-.96,11.71,3.14,3,5.19,9.66,6.98,14.84,3.98,2.78-1.6,4.1-3.9,4.73-5.55,1.67-4.43,6.62-6.66,11.05-4.99s6.66,6.62,4.99,11.05c-2.28,6.03-6.61,11.12-12.19,14.34-6.52,3.77-13.95,4.59-20.75,2.91-2.01,7.01-6.58,12.87-12.92,16.52-4.28,2.47-9.14,3.75-14.03,3.75h.01Z"/>
        <path class="st0" d="M321.21,379.18c-2.96,0-5.85-1.54-7.43-4.29l-29.85-51.71c-2.37-4.1-.96-9.34,3.14-11.71s9.35-.96,11.71,3.14l29.85,51.71c2.37,4.1.96,9.34-3.14,11.71-1.35.78-2.82,1.15-4.28,1.15Z"/>
      </g>
      <g>
        <path class="st0" d="M399.14,297.15c-1.91,0-3.83-.64-5.43-1.94-3.66-3-4.2-8.4-1.2-12.07,1.6-1.96,2.44-4.33,2.44-6.87,0-5.99-4.87-10.86-10.86-10.86-4.74,0-8.57-3.84-8.57-8.57s3.84-8.57,8.57-8.57c5.99,0,10.86-4.87,10.86-10.86,0-2.54-.85-4.92-2.45-6.87-3-3.66-2.46-9.06,1.21-12.06,3.67-3.01,9.07-2.47,12.07,1.21,4.08,4.98,6.32,11.28,6.32,17.73,0,7.54-3,14.4-7.86,19.44,4.86,5.04,7.86,11.9,7.86,19.44,0,6.45-2.25,12.75-6.33,17.73-1.69,2.07-4.16,3.14-6.64,3.14v-.02Z"/>
        <path class="st0" d="M387.85,265.41h-59.71c-4.73,0-8.57-3.84-8.57-8.57s3.84-8.57,8.57-8.57h59.71c4.74,0,8.57,3.84,8.57,8.57s-3.84,8.57-8.57,8.57Z"/>
      </g>
      <g>
        <path class="st0" d="M355.78,156.9c-3.46,0-6.73-2.11-8.02-5.55-.9-2.37-2.53-4.29-4.73-5.56-5.19-3-11.84-1.21-14.84,3.98-2.37,4.1-7.61,5.51-11.71,3.14-2.75-1.59-4.29-4.47-4.29-7.44,0-1.45.37-2.93,1.15-4.28,2.99-5.19,1.21-11.85-3.98-14.85-2.2-1.26-4.67-1.72-7.17-1.31-4.65.75-9.08-2.4-9.84-7.08-.77-4.67,2.4-9.08,7.08-9.85,6.37-1.04,12.93.16,18.52,3.38,6.53,3.77,10.97,9.8,12.9,16.53,6.8-1.69,14.23-.86,20.77,2.91,5.59,3.23,9.92,8.33,12.19,14.35,1.67,4.43-.56,9.38-4.99,11.05-1,.38-2.02.56-3.03.56v.02Z"/>
        <path class="st0" d="M292.78,202.51c-1.45,0-2.93-.37-4.28-1.15-4.1-2.37-5.51-7.61-3.14-11.71l29.85-51.71c2.37-4.1,7.61-5.5,11.71-3.14,4.1,2.37,5.51,7.61,3.14,11.71l-29.85,51.71c-1.59,2.75-4.47,4.29-7.43,4.29Z"/>
      </g>
      <g>
        <path class="st0" d="M256,229.26c-4.73,0-8.57-3.84-8.57-8.57V9.94c0-4.74,3.84-8.57,8.57-8.57s8.57,3.84,8.57,8.57v210.74c0,4.73-3.84,8.57-8.57,8.57h0Z"/>
        <path class="st0" d="M256.79,132.05c-2.19,0-4.39-.84-6.06-2.51l-45.48-45.48c-3.35-3.35-3.35-8.78,0-12.12,3.35-3.35,8.77-3.35,12.12,0l39.42,39.42,38.48-38.48c3.35-3.35,8.78-3.35,12.12,0,3.35,3.35,3.35,8.78,0,12.12l-44.54,44.54c-1.67,1.67-3.87,2.51-6.06,2.51Z"/>
        <path class="st0" d="M256.58,72.51c-2.19,0-4.39-.84-6.06-2.51l-24.69-24.69c-3.35-3.35-3.35-8.77,0-12.12,3.35-3.35,8.78-3.35,12.12,0l18.63,18.63,18.11-18.11c3.35-3.35,8.78-3.35,12.12,0,3.35,3.35,3.35,8.77,0,12.12l-24.18,24.18c-1.67,1.67-3.87,2.51-6.06,2.51h0Z"/>
      </g>
      <g>
        <path class="st0" d="M225.41,246.92c-1.45,0-2.93-.37-4.28-1.15L38.62,140.4c-4.1-2.37-5.51-7.61-3.14-11.71,2.37-4.1,7.61-5.51,11.71-3.14l182.51,105.37c4.1,2.37,5.51,7.61,3.14,11.71-1.59,2.75-4.47,4.29-7.43,4.29h0Z"/>
        <path class="st0" d="M79.49,214.28c-3.78,0-7.25-2.53-8.27-6.36-1.23-4.57,1.49-9.27,6.06-10.5l53.85-14.43-14.08-52.56c-1.23-4.57,1.49-9.27,6.06-10.5,4.57-1.24,9.27,1.49,10.5,6.06l16.3,60.84c1.23,4.57-1.49,9.27-6.06,10.5l-62.13,16.65c-.74.2-1.49.3-2.23.3h0Z"/>
        <path class="st0" d="M56.23,177.08c-3.78,0-7.25-2.53-8.27-6.36-1.23-4.58,1.49-9.28,6.06-10.5l25.44-6.82-6.63-24.75c-1.23-4.57,1.49-9.27,6.06-10.5,4.56-1.24,9.28,1.49,10.5,6.06l8.85,33.03c.59,2.2.28,4.54-.86,6.51s-3.01,3.41-5.21,3.99l-33.72,9.03c-.74.2-1.49.3-2.23.3h.01Z"/>
      </g>
      <g>
        <path class="st0" d="M42.92,387.6c-2.96,0-5.85-1.54-7.43-4.29-2.37-4.1-.96-9.34,3.14-11.71l182.51-105.37c4.1-2.37,9.35-.96,11.71,3.14,2.37,4.1.96,9.34-3.14,11.71l-182.51,105.37c-1.35.78-2.82,1.15-4.28,1.15Z"/>
        <path class="st0" d="M124.19,392.29c-.73,0-1.48-.1-2.23-.3-4.57-1.23-7.29-5.93-6.06-10.5l14.43-53.85-52.56-14.08c-4.57-1.23-7.29-5.92-6.06-10.5,1.22-4.58,5.92-7.31,10.5-6.06l60.84,16.3c2.2.59,4.07,2.03,5.21,3.99,1.14,1.97,1.45,4.31.86,6.51l-16.65,62.13c-1.03,3.83-4.49,6.36-8.27,6.36h-.01Z"/>
        <path class="st0" d="M80.35,393.83c-.73,0-1.48-.1-2.23-.3-4.57-1.23-7.29-5.93-6.06-10.5l6.82-25.44-24.74-6.63c-4.57-1.23-7.29-5.93-6.06-10.5,1.22-4.58,5.93-7.31,10.5-6.06l33.03,8.85c2.2.59,4.07,2.03,5.21,3.99,1.14,1.97,1.45,4.31.86,6.51l-9.04,33.72c-1.03,3.83-4.49,6.36-8.27,6.36h-.02Z"/>
      </g>
      <g>
        <path class="st0" d="M256,510.63c-4.73,0-8.57-3.84-8.57-8.57v-210.74c0-4.74,3.84-8.57,8.57-8.57s8.57,3.84,8.57,8.57v210.74c0,4.73-3.84,8.57-8.57,8.57Z"/>
        <path class="st0" d="M300.69,442.58c-2.19,0-4.39-.84-6.06-2.51l-39.42-39.42-38.48,38.48c-3.34,3.35-8.78,3.35-12.12,0-3.35-3.35-3.35-8.77,0-12.12l44.54-44.54c3.35-3.35,8.78-3.35,12.12,0l45.48,45.48c3.35,3.35,3.35,8.77,0,12.12-1.67,1.67-3.87,2.51-6.06,2.51h0Z"/>
        <path class="st0" d="M280.11,481.32c-2.19,0-4.39-.84-6.06-2.51l-18.63-18.63-18.11,18.11c-3.35,3.35-8.78,3.35-12.12,0-3.35-3.35-3.35-8.78,0-12.12l24.18-24.18c3.35-3.35,8.78-3.35,12.12,0l24.69,24.69c3.35,3.35,3.35,8.78,0,12.12-1.67,1.67-3.87,2.51-6.06,2.51h-.01Z"/>
      </g>
      <g>
        <path class="st0" d="M469.08,387.6c-1.45,0-2.93-.37-4.28-1.15l-182.51-105.37c-4.1-2.37-5.51-7.61-3.14-11.71s7.61-5.51,11.71-3.14l182.51,105.37c4.1,2.37,5.51,7.61,3.14,11.71-1.59,2.75-4.47,4.29-7.43,4.29h0Z"/>
        <path class="st0" d="M386.67,392.37c-3.78,0-7.25-2.53-8.27-6.36l-16.3-60.84c-1.23-4.57,1.49-9.27,6.06-10.5l62.13-16.65c4.57-1.24,9.27,1.49,10.5,6.06s-1.49,9.27-6.06,10.5l-53.85,14.43,14.08,52.56c1.23,4.57-1.49,9.27-6.06,10.5-.74.2-1.49.29-2.23.3Z"/>
        <path class="st0" d="M430.88,394.13c-3.78,0-7.25-2.53-8.27-6.36l-8.85-33.03c-.59-2.2-.28-4.54.86-6.51,1.14-1.97,3.01-3.41,5.21-3.99l33.73-9.03c4.57-1.24,9.28,1.49,10.5,6.06,1.22,4.58-1.49,9.28-6.06,10.5l-25.44,6.82,6.63,24.75c1.23,4.57-1.49,9.27-6.06,10.5-.74.2-1.49.3-2.23.3h-.02Z"/>
      </g>
      <g>
        <path class="st0" d="M286.59,246.92c-2.96,0-5.85-1.54-7.43-4.29-2.37-4.1-.96-9.34,3.14-11.71l182.51-105.37c4.1-2.37,9.34-.96,11.71,3.14s.96,9.34-3.14,11.71l-182.51,105.37c-1.35.78-2.82,1.15-4.28,1.15h0Z"/>
        <path class="st0" d="M432.02,215.3c-.73,0-1.48-.1-2.23-.3l-60.85-16.3c-2.2-.59-4.07-2.03-5.21-3.99-1.14-1.97-1.45-4.31-.86-6.51l16.65-62.13c1.22-4.58,5.93-7.31,10.5-6.06,4.57,1.23,7.29,5.93,6.06,10.5l-14.43,53.85,52.56,14.08c4.57,1.22,7.29,5.92,6.06,10.5-1.03,3.83-4.49,6.35-8.27,6.36h.02Z"/>
        <path class="st0" d="M455.65,177.9c-.73,0-1.48-.1-2.23-.3l-33.03-8.85c-2.2-.59-4.07-2.03-5.21-3.99-1.14-1.97-1.45-4.31-.86-6.51l9.04-33.72c1.22-4.58,5.93-7.31,10.5-6.06,4.57,1.23,7.29,5.93,6.06,10.5l-6.82,25.44,24.74,6.63c4.57,1.23,7.29,5.93,6.06,10.5-1.03,3.83-4.49,6.36-8.27,6.36h.02Z"/>
      </g>
      <path class="st0" d="M165.29,82.15c7.78,0,14.09,6.31,14.09,14.09s-6.31,14.09-14.09,14.09-14.09-6.31-14.09-14.09,6.31-14.09,14.09-14.09Z"/>
      <path class="st0" d="M60.09,247.63c3.89-6.74,12.51-9.05,19.25-5.16s9.05,12.51,5.16,19.25c-3.89,6.74-12.51,9.05-19.25,5.16-6.74-3.89-9.05-12.51-5.16-19.25Z"/>
      <path class="st0" d="M150.79,421.48c-3.89-6.74-1.58-15.36,5.16-19.25s15.36-1.58,19.25,5.16,1.58,15.36-5.16,19.25-15.36,1.58-19.25-5.16Z"/>
      <circle class="st0" cx="346.7" cy="415.76" r="14.09"/>
      <path class="st0" d="M451.91,264.37c-3.89,6.74-12.51,9.05-19.25,5.16-6.74-3.89-9.05-12.51-5.16-19.25,3.89-6.74,12.51-9.05,19.25-5.16s9.05,12.51,5.16,19.25Z"/>
      <path class="st0" d="M361.21,90.52c3.89,6.74,1.58,15.36-5.16,19.25s-15.36,1.58-19.25-5.16-1.58-15.36,5.16-19.25,15.36-1.58,19.25,5.16Z"/>
    </g>
  </g>
</svg>