<?xml version="1.0" encoding="UTF-8"?>
<svg id="Layer_9" xmlns="http://www.w3.org/2000/svg" version="1.1" viewBox="0 0 512 512">
  <!-- Generator: Adobe Illustrator 29.8.3, SVG Export Plug-In . SVG Version: 2.1.1 Build 3)  -->
  <defs>
    <style>
      .st0 {
        fill: #fff;
      }
    </style>
  </defs>
  <path class="st0" d="M256,293.94c-20.92,0-37.94-17.02-37.94-37.94s17.02-37.94,37.94-37.94,37.94,17.02,37.94,37.94-17.02,37.94-37.94,37.94ZM256,235.24c-11.45,0-20.77,9.32-20.77,20.77s9.32,20.77,20.77,20.77,20.77-9.32,20.77-20.77-9.32-20.77-20.77-20.77Z"/>
  <path class="st0" d="M184.43,153.13l14.96,51.82h0c17.8,5.38,36.46-5.38,40.69-23.5h0l-37.4-38.86c-7.86-8.17-21.4-.35-18.26,10.54Z"/>
  <path class="st0" d="M131.12,266.55l52.36,12.95h0c13.56-12.73,13.56-34.26,0-46.99h0l-52.36,12.95c-11,2.72-11,18.36,0,21.08Z"/>
  <path class="st0" d="M202.69,369.42l37.4-38.86h0c-4.24-18.11-22.89-28.88-40.69-23.5h0l-14.96,51.82c-3.14,10.89,10.4,18.71,18.26,10.54Z"/>
  <path class="st0" d="M327.57,358.88l-14.96-51.82h0c-17.8-5.38-36.46,5.38-40.69,23.5h0s37.4,38.86,37.4,38.86c7.86,8.17,21.4.35,18.26-10.54Z"/>
  <path class="st0" d="M380.88,245.47l-52.36-12.95h0c-13.56,12.73-13.56,34.26,0,46.99h0l52.36-12.95c11-2.72,11-18.36,0-21.08Z"/>
  <path class="st0" d="M309.31,142.59l-37.4,38.86h0c4.24,18.11,22.89,28.88,40.69,23.5h0l14.96-51.82c3.14-10.89-10.4-18.71-18.26-10.54Z"/>
  <g>
    <path class="st0" d="M255.95,150.2c-2.18,0-4.36-.83-6.03-2.47l-52.86-52.18c-3.37-3.33-3.41-8.77-.08-12.14,3.33-3.37,8.77-3.4,12.14-.08l46.83,46.23,46.83-46.23c3.37-3.32,8.81-3.29,12.14.08,3.33,3.37,3.29,8.81-.08,12.14l-52.86,52.18c-1.67,1.65-3.85,2.47-6.03,2.47Z"/>
    <path class="st0" d="M255.95,87.63c-2.18,0-4.36-.83-6.03-2.47l-26.82-26.47c-3.37-3.33-3.41-8.77-.08-12.14,3.32-3.38,8.76-3.41,12.14-.08l20.79,20.52,20.79-20.52c3.37-3.32,8.81-3.29,12.14.08,3.33,3.37,3.29,8.81-.08,12.14l-26.82,26.47c-1.67,1.65-3.85,2.47-6.03,2.47Z"/>
  </g>
  <g>
    <path class="st0" d="M85.29,227.13c-3.77,0-7.23-2.5-8.27-6.31-1.26-4.57,1.43-9.3,6-10.55l63.45-17.44-16.62-63.67c-1.2-4.59,1.55-9.28,6.14-10.47,4.57-1.19,9.27,1.55,10.47,6.14l18.76,71.87c1.19,4.54-1.5,9.2-6.03,10.45l-71.62,19.69c-.76.21-1.53.31-2.28.31Z"/>
    <path class="st0" d="M66.38,186.15c-3.77,0-7.23-2.5-8.27-6.31-1.26-4.57,1.43-9.3,6-10.55l28.17-7.74-7.38-28.27c-1.2-4.59,1.55-9.28,6.14-10.47,4.57-1.19,9.27,1.55,10.47,6.14l9.52,36.47c1.19,4.54-1.5,9.2-6.03,10.45l-36.34,9.99c-.76.21-1.53.31-2.28.31Z"/>
  </g>
  <g>
    <path class="st0" d="M138.21,393.7c-.72,0-1.45-.09-2.17-.28-4.59-1.2-7.34-5.89-6.14-10.47l16.62-63.67-63.45-17.44c-4.57-1.26-7.26-5.98-6-10.55,1.26-4.57,5.98-7.26,10.55-6l71.62,19.69c4.53,1.24,7.22,5.9,6.03,10.45l-18.76,71.87c-1.01,3.86-4.49,6.42-8.3,6.42Z"/>
    <path class="st0" d="M93.26,389.58c-.72,0-1.45-.09-2.17-.28-4.59-1.2-7.34-5.89-6.14-10.47l7.38-28.27-28.17-7.74c-4.57-1.26-7.26-5.98-6-10.55,1.26-4.57,5.97-7.26,10.55-6l36.34,9.99c4.53,1.24,7.22,5.9,6.03,10.45l-9.52,36.47c-1.01,3.86-4.49,6.42-8.3,6.42Z"/>
  </g>
  <g>
    <path class="st0" d="M308.91,431.16c-2.18,0-4.36-.83-6.03-2.47l-46.83-46.23-46.83,46.23c-3.37,3.32-8.81,3.29-12.14-.08-3.33-3.37-3.29-8.81.08-12.14l52.86-52.18c3.34-3.29,8.72-3.29,12.06,0l52.86,52.18c3.37,3.33,3.41,8.77.08,12.14-1.68,1.7-3.9,2.55-6.11,2.55Z"/>
    <path class="st0" d="M282.87,468.03c-2.18,0-4.36-.83-6.03-2.48l-20.79-20.52-20.79,20.53c-3.38,3.32-8.81,3.29-12.14-.08-3.33-3.37-3.29-8.81.08-12.14l26.82-26.48c3.34-3.29,8.72-3.3,12.06,0l26.82,26.48c3.37,3.33,3.41,8.76.08,12.14-1.68,1.7-3.89,2.55-6.11,2.55Z"/>
  </g>
  <g>
    <path class="st0" d="M373.85,393.61c-3.81,0-7.29-2.56-8.3-6.42l-18.76-71.87c-1.19-4.54,1.5-9.2,6.03-10.44l71.62-19.69c4.57-1.26,9.3,1.43,10.55,6,1.26,4.57-1.43,9.3-6,10.55l-63.45,17.44,16.62,63.67c1.19,4.59-1.55,9.28-6.14,10.47-.73.19-1.45.28-2.17.28Z"/>
    <path class="st0" d="M418.79,389.5c-3.81,0-7.29-2.56-8.3-6.42l-9.52-36.47c-1.19-4.54,1.5-9.2,6.03-10.45l36.34-9.99c4.59-1.26,9.3,1.43,10.55,6,1.26,4.57-1.43,9.3-6,10.55l-28.17,7.74,7.38,28.27c1.19,4.59-1.55,9.28-6.14,10.47-.73.19-1.45.28-2.17.28Z"/>
  </g>
  <g>
    <g>
      <path class="st0" d="M261.01,3.7c-4.98-1.34-10.21-.65-14.69,1.93-9.24,5.34-12.42,17.2-7.09,26.45,3.58,6.2,10.1,9.67,16.8,9.67,3.28,0,6.61-.83,9.65-2.59,9.24-5.34,12.42-17.2,7.09-26.45-2.58-4.48-6.76-7.68-11.76-9.02Z"/>
      <path class="st0" d="M53.69,119.85c-10.67,0-19.36,8.68-19.36,19.36s8.68,19.36,19.36,19.36,19.36-8.68,19.36-19.36-8.68-19.36-19.36-19.36Z"/>
      <path class="st0" d="M63.37,356.04c-9.24-5.33-21.1-2.16-26.44,7.09-5.34,9.25-2.16,21.11,7.09,26.45,2.98,1.72,6.29,2.6,9.65,2.6,1.68,0,3.37-.22,5.04-.67,5-1.34,9.17-4.54,11.75-9.02,2.59-4.48,3.27-9.69,1.93-14.69-1.34-4.99-4.54-9.17-9.02-11.76Z"/>
      <path class="st0" d="M246.32,472.84c-4.48,2.59-7.68,6.77-9.02,11.76-1.34,5-.65,10.21,1.93,14.69,3.58,6.2,10.1,9.68,16.8,9.68,3.28,0,6.61-.84,9.65-2.59,9.24-5.34,12.42-17.2,7.09-26.45-5.34-9.24-17.21-12.41-26.45-7.09Z"/>
      <path class="st0" d="M458.31,353.45c-10.68,0-19.36,8.68-19.36,19.36s8.68,19.36,19.36,19.36,19.36-8.68,19.36-19.36-8.68-19.36-19.36-19.36Z"/>
      <path class="st0" d="M448.63,155.97c3.04,1.76,6.37,2.59,9.65,2.59,6.69,0,13.22-3.47,16.8-9.68,5.34-9.25,2.16-21.11-7.09-26.45-9.24-5.33-21.11-2.15-26.45,7.09-5.34,9.24-2.15,21.11,7.09,26.45Z"/>
    </g>
    <path class="st0" d="M426.67,227.05c-.75,0-1.52-.1-2.28-.31l-71.61-19.69c-4.53-1.24-7.22-5.9-6.03-10.45l18.76-71.87c1.2-4.59,5.89-7.34,10.47-6.14,4.59,1.2,7.33,5.89,6.14,10.47l-16.62,63.67,63.45,17.44c4.57,1.26,7.26,5.98,6,10.55-1.05,3.81-4.51,6.31-8.27,6.31Z"/>
    <path class="st0" d="M445.57,186.07c-.75,0-1.52-.1-2.28-.31l-36.34-9.99c-4.53-1.24-7.22-5.9-6.03-10.45l9.52-36.47c1.2-4.59,5.88-7.34,10.47-6.14s7.33,5.89,6.14,10.47l-7.38,28.27,28.17,7.75c4.57,1.26,7.26,5.98,6,10.55-1.05,3.81-4.51,6.31-8.27,6.31Z"/>
  </g>
  <path class="st0" d="M230.58,249.93c-1.45,0-2.93-.37-4.28-1.15l-73.68-42.5c-4.11-2.37-5.51-7.62-3.15-11.72,2.36-4.11,7.61-5.52,11.73-3.15l73.68,42.5c4.11,2.37,5.51,7.62,3.15,11.72-1.59,2.76-4.48,4.3-7.44,4.3Z"/>
  <path class="st0" d="M156.96,321.83c-2.97,0-5.85-1.54-7.44-4.29-2.37-4.11-.97-9.36,3.14-11.73l73.65-42.56c4.12-2.38,9.36-.96,11.73,3.14,2.37,4.11.97,9.36-3.14,11.73l-73.65,42.56c-1.35.78-2.83,1.15-4.29,1.15Z"/>
  <path class="st0" d="M256.05,378.98c-4.74,0-8.58-3.84-8.58-8.58l-.04-85.06c0-4.74,3.84-8.59,8.58-8.59h0c4.74,0,8.58,3.84,8.58,8.58l.04,85.06c0,4.74-3.84,8.59-8.58,8.59h0Z"/>
  <path class="st0" d="M355.08,321.75c-1.45,0-2.93-.37-4.28-1.15l-73.68-42.5c-4.11-2.37-5.51-7.62-3.15-11.72,2.36-4.11,7.62-5.52,11.72-3.15l73.68,42.5c4.11,2.37,5.52,7.62,3.15,11.72-1.59,2.76-4.48,4.3-7.44,4.3Z"/>
  <path class="st0" d="M281.41,249.91c-2.97,0-5.85-1.54-7.44-4.29-2.37-4.11-.97-9.36,3.14-11.73l73.65-42.56c4.1-2.38,9.36-.97,11.73,3.14,2.37,4.11.97,9.36-3.14,11.73l-73.65,42.56c-1.35.78-2.83,1.15-4.29,1.15Z"/>
  <path class="st0" d="M255.99,235.26c-4.74,0-8.58-3.84-8.58-8.58l-.04-85.06c0-4.74,3.84-8.59,8.58-8.59h0c4.74,0,8.58,3.84,8.58,8.58l.04,85.06c0,4.74-3.84,8.59-8.58,8.59h0Z"/>
</svg>