<?xml version="1.0" encoding="UTF-8"?>
<svg id="Layer_1" xmlns="http://www.w3.org/2000/svg" version="1.1" viewBox="0 0 512 512">
  <!-- Generator: Adobe Illustrator 30.0.0, SVG Export Plug-In . SVG Version: 2.1.1 Build 123)  -->
  <defs>
    <style>
      .st0 {
        fill: #fff;
      }
    </style>
  </defs>
  <g id="Layer_6">
    <g>
      <path class="st0" d="M256,299.29c-23.87,0-43.28-19.42-43.28-43.28s19.42-43.29,43.28-43.29,43.28,19.42,43.28,43.29-19.42,43.28-43.28,43.28ZM256,228.98c-14.9,0-27.02,12.12-27.02,27.02s12.12,27.02,27.02,27.02,27.02-12.12,27.02-27.02-12.12-27.02-27.02-27.02h0Z"/>
      <path class="st0" d="M164.63,426.75c-2.81,0-5.55-1.46-7.05-4.07-2.25-3.89-.91-8.86,2.98-11.11,41.55-23.99,55.83-77.3,31.85-118.85-23.99-41.54-77.3-55.83-118.85-31.85-3.89,2.25-8.87.91-11.11-2.98-2.25-3.89-.91-8.86,2.98-11.11,49.3-28.48,112.6-11.52,141.07,37.8,28.47,49.32,11.52,112.6-37.8,141.07-1.28.74-2.68,1.09-4.06,1.09h-.01Z"/>
      <path class="st0" d="M351.14,424.57c-4.49,0-8.13-3.64-8.13-8.13,0-47.97-39.03-87-87-87s-87,39.03-87,87c0,4.49-3.64,8.13-8.13,8.13s-8.13-3.64-8.13-8.13c0-56.94,46.33-103.27,103.27-103.27s103.27,46.33,103.27,103.27c0,4.49-3.64,8.13-8.13,8.13h-.02Z"/>
      <path class="st0" d="M347.36,426.75c-1.38,0-2.78-.35-4.06-1.09-49.31-28.47-66.27-91.76-37.8-141.07,13.79-23.89,36.07-40.98,62.71-48.12,26.65-7.14,54.47-3.47,78.36,10.32,3.89,2.25,5.22,7.22,2.98,11.11-2.25,3.89-7.22,5.23-11.11,2.98-20.12-11.62-43.58-14.7-66.02-8.69-22.45,6.01-41.21,20.41-52.83,40.54-23.99,41.55-9.7,94.86,31.84,118.85,3.89,2.25,5.22,7.22,2.98,11.11-1.51,2.61-4.24,4.07-7.05,4.07h0Z"/>
      <path class="st0" d="M395.11,279.1c-8.97,0-18-1.18-26.9-3.56-26.65-7.14-48.92-24.23-62.71-48.12-28.47-49.31-11.51-112.6,37.8-141.07,3.88-2.25,8.86-.91,11.11,2.98,2.24,3.89.91,8.86-2.98,11.11-41.55,23.99-55.83,77.3-31.84,118.85,11.62,20.13,30.38,34.52,52.83,40.54,22.45,6.01,45.89,2.93,66.02-8.69,3.88-2.26,8.86-.91,11.11,2.98,2.24,3.89.91,8.86-2.98,11.11-15.91,9.19-33.57,13.88-51.47,13.88h.01Z"/>
      <path class="st0" d="M347.37,426.75c-1.41,0-2.81-.36-4.07-1.09-32.77-18.92-51.25-53.21-51.61-88.56-10.9-4.92-22.98-7.66-35.69-7.66s-24.8,2.74-35.7,7.66c-.36,35.35-18.84,69.64-51.61,88.56-2.52,1.45-5.62,1.45-8.13,0l-3.77-2.17c-2.52-1.45-4.07-4.14-4.07-7.04,0-37.86,20.48-71.03,50.94-89-1.22-12.09-5-23.89-11.26-34.72-6.34-10.99-14.74-20.07-24.43-27.04-7.52,4.24-15.63,7.57-24.19,9.86-26.65,7.14-54.47,3.48-78.36-10.32-2.52-1.45-4.07-4.14-4.07-7.04v-4.35c0-2.91,1.55-5.59,4.07-7.04,32.76-18.92,71.7-17.78,102.5-.42,9.71-6.98,18.13-16.07,24.48-27.08,6.36-11.01,10.03-22.85,11.21-34.75-30.43-17.99-50.89-51.14-50.89-88.97,0-2.91,1.55-5.59,4.07-7.05l3.77-2.17c2.51-1.45,5.61-1.45,8.13,0,32.77,18.92,51.25,53.21,51.61,88.56,10.9,4.92,22.98,7.66,35.7,7.66s24.8-2.74,35.69-7.66c.36-35.35,18.84-69.64,51.61-88.56,2.52-1.45,5.62-1.45,8.13,0l3.77,2.17c2.51,1.45,4.07,4.14,4.07,7.05,0,37.84-20.45,70.99-50.89,88.98,1.18,11.9,4.85,23.73,11.21,34.74,6.24,10.81,14.55,19.97,24.38,27.07,7.54-4.26,15.66-7.59,24.24-9.89,26.65-7.14,54.47-3.47,78.36,10.32,2.52,1.45,4.07,4.14,4.07,7.04v4.35c0,2.91-1.55,5.59-4.07,7.04-23.89,13.79-51.72,17.45-78.36,10.32-8.58-2.3-16.7-5.63-24.24-9.89-9.83,7.1-18.13,16.25-24.38,27.07-6.36,11.01-10.03,22.85-11.21,34.74,30.43,17.99,50.89,51.14,50.89,88.98,0,2.91-1.55,5.59-4.07,7.04l-3.77,2.17c-1.26.73-2.66,1.09-4.07,1.09h0ZM203.38,347.19c-18.15,13.83-30.72,34.61-33.71,58.34,15.36-11.61,26.36-27.89,31.42-46.79,1.02-3.83,1.79-7.68,2.29-11.55ZM308.67,347.23c2.91,22.6,14.62,43.85,33.65,58.29-2.98-23.7-15.53-44.46-33.65-58.29ZM182.15,256.03c9.54,7.73,17.85,17.3,24.35,28.55,6.51,11.27,10.64,23.27,12.56,35.41,11.48-4.41,23.94-6.83,36.95-6.83s25.47,2.42,36.95,6.83c1.92-12.15,6.05-24.15,12.56-35.41,6.41-11.1,14.65-20.73,24.31-28.58-9.66-7.85-17.9-17.48-24.31-28.58-6.51-11.27-10.64-23.27-12.56-35.41-11.48,4.41-23.93,6.83-36.95,6.83s-25.47-2.42-36.95-6.83c-1.92,12.15-6.05,24.15-12.56,35.41-6.42,11.12-14.67,20.76-24.35,28.61h0ZM361.22,256c3.61,1.51,7.36,2.79,11.21,3.82,18.9,5.06,38.51,3.67,56.24-3.82-17.73-7.5-37.34-8.88-56.24-3.82-3.85,1.03-7.59,2.31-11.21,3.82ZM83.35,256c22.02,9.27,46.28,8.78,67.3,0-21.03-8.79-45.28-9.27-67.3,0ZM342.32,106.49c-19.03,14.43-30.74,35.68-33.65,58.28,18.12-13.82,30.67-34.58,33.65-58.28ZM169.68,106.49c2.98,23.7,15.53,44.46,33.65,58.28-2.91-22.6-14.62-43.85-33.65-58.28Z"/>
      <path class="st0" d="M256,198.84c-4.49,0-8.13-3.64-8.13-8.13v-97.31c0-4.49,3.64-8.13,8.13-8.13s8.13,3.64,8.13,8.13v97.31c0,4.49-3.64,8.13-8.13,8.13Z"/>
      <path class="st0" d="M199.44,231.49c-1.38,0-2.78-.35-4.06-1.09l-84.27-48.66c-2.61-1.51-4.07-4.24-4.07-7.05,0-1.38.35-2.78,1.09-4.06,2.24-3.89,7.22-5.23,11.11-2.98l84.27,48.66c2.61,1.51,4.07,4.24,4.07,7.05,0,1.38-.35,2.78-1.09,4.06-1.51,2.61-4.24,4.07-7.05,4.07h0Z"/>
      <path class="st0" d="M115.18,345.44c-2.81,0-5.54-1.46-7.05-4.07-.74-1.28-1.09-2.68-1.09-4.06,0-2.81,1.46-5.55,4.07-7.05l84.27-48.66c3.89-2.25,8.86-.91,11.11,2.98.74,1.28,1.09,2.68,1.09,4.06,0,2.81-1.46,5.55-4.07,7.05l-84.27,48.66c-1.28.74-2.68,1.09-4.06,1.09Z"/>
      <path class="st0" d="M256,426.75c-4.49,0-8.13-3.64-8.13-8.13v-97.31c0-4.49,3.64-8.13,8.13-8.13s8.13,3.64,8.13,8.13v97.31c0,4.49-3.64,8.13-8.13,8.13Z"/>
      <path class="st0" d="M396.82,345.44c-1.38,0-2.78-.35-4.06-1.09l-84.28-48.66c-2.61-1.51-4.07-4.24-4.07-7.05,0-1.38.35-2.78,1.09-4.06,2.25-3.89,7.21-5.23,11.11-2.98l84.28,48.66c2.61,1.51,4.07,4.24,4.07,7.05,0,1.38-.35,2.78-1.09,4.06-1.51,2.61-4.24,4.07-7.05,4.07Z"/>
      <g>
        <path class="st0" d="M312.56,231.49c-2.81,0-5.54-1.46-7.05-4.07-.74-1.28-1.09-2.68-1.09-4.06,0-2.81,1.46-5.55,4.07-7.05l84.28-48.66c3.9-2.25,8.86-.91,11.11,2.98.74,1.28,1.09,2.68,1.09,4.06,0,2.81-1.46,5.55-4.07,7.05l-84.28,48.66c-1.28.74-2.68,1.09-4.06,1.09h0Z"/>
        <g>
          <path class="st0" d="M250.28,3.65c-12.87,12.72-19.96,29.69-19.96,47.76s7.09,35.04,19.96,47.76c1.58,1.57,3.65,2.35,5.72,2.35s4.13-.78,5.72-2.35c12.87-12.72,19.96-29.69,19.96-47.76s-7.09-35.04-19.96-47.76c-3.17-3.13-8.27-3.13-11.44,0Z"/>
          <path class="st0" d="M91.66,131.47c-15.65-9.04-33.89-11.38-51.34-6.59-4.3,1.18-6.85,5.59-5.72,9.9,4.58,17.51,15.73,32.13,31.38,41.17,10.34,5.97,21.81,9.02,33.44,9.02,5.97,0,11.98-.8,17.9-2.43,4.3-1.18,6.85-5.59,5.72-9.9-4.58-17.51-15.73-32.13-31.38-41.17h0Z"/>
          <path class="st0" d="M117.33,329.46c-17.46-4.79-35.69-2.45-51.34,6.59-15.65,9.04-26.8,23.65-31.38,41.17-1.13,4.31,1.42,8.73,5.72,9.9,5.92,1.62,11.93,2.43,17.9,2.43,11.63,0,23.1-3.05,33.44-9.02,15.65-9.04,26.8-23.66,31.38-41.16,1.13-4.31-1.42-8.73-5.72-9.91h0Z"/>
          <path class="st0" d="M250.28,412.83c-12.87,12.72-19.96,29.68-19.96,47.76s7.09,35.04,19.96,47.76c1.58,1.57,3.65,2.35,5.72,2.35s4.13-.78,5.72-2.35c12.87-12.72,19.96-29.69,19.96-47.76s-7.09-35.04-19.96-47.76c-3.17-3.13-8.27-3.13-11.43,0h-.01Z"/>
          <path class="st0" d="M446.02,336.06c-15.66-9.04-33.9-11.38-51.34-6.59-4.3,1.18-6.85,5.59-5.72,9.91,4.58,17.51,15.73,32.13,31.38,41.16,10.35,5.97,21.82,9.02,33.44,9.02,5.97,0,11.98-.8,17.9-2.43,4.3-1.18,6.85-5.59,5.72-9.91-4.58-17.51-15.73-32.13-31.38-41.16Z"/>
          <path class="st0" d="M394.68,182.54c5.92,1.62,11.93,2.42,17.9,2.42,11.63,0,23.1-3.05,33.44-9.02,15.65-9.04,26.8-23.66,31.38-41.17,1.13-4.31-1.42-8.73-5.72-9.91-17.45-4.79-35.68-2.45-51.34,6.59-15.65,9.04-26.8,23.66-31.38,41.17-1.13,4.31,1.42,8.73,5.72,9.9v.02Z"/>
        </g>
      </g>
    </g>
  </g>
</svg>