<?xml version="1.0" encoding="UTF-8"?>
<svg id="Layer_1" xmlns="http://www.w3.org/2000/svg" version="1.1" viewBox="0 0 512 512">
  <!-- Generator: Adobe Illustrator 30.0.0, SVG Export Plug-In . SVG Version: 2.1.1 Build 123)  -->
  <defs>
    <style>
      .st0 {
        fill: #fff;
      }
    </style>
  </defs>
  <path class="st0" d="M256,292.89c-20.34,0-36.89-16.55-36.89-36.89s16.55-36.89,36.89-36.89,36.89,16.55,36.89,36.89-16.55,36.89-36.89,36.89ZM256,233.97c-12.15,0-22.03,9.88-22.03,22.03s9.88,22.03,22.03,22.03,22.03-9.88,22.03-22.03-9.88-22.03-22.03-22.03Z"/>
  <path class="st0" d="M256,186.53c-4.1,0-7.43-3.33-7.43-7.43v-44.22c0-4.1,3.33-7.43,7.43-7.43s7.43,3.33,7.43,7.43v44.22c0,4.1-3.33,7.43-7.43,7.43Z"/>
  <path class="st0" d="M189.4,224.98c-1.26,0-2.54-.32-3.71-1l-38.29-22.11c-3.55-2.05-4.77-6.59-2.72-10.15,2.05-3.55,6.59-4.77,10.15-2.72l38.3,22.11c3.55,2.05,4.77,6.59,2.72,10.15-1.37,2.38-3.87,3.72-6.44,3.72h0Z"/>
  <path class="st0" d="M151.12,323.99c-2.57,0-5.07-1.33-6.44-3.72-2.05-3.55-.83-8.1,2.72-10.15l38.29-22.11c3.55-2.05,8.1-.83,10.15,2.72,2.05,3.55.83,8.1-2.72,10.15l-38.3,22.11c-1.17.68-2.45,1-3.71,1h.01Z"/>
  <path class="st0" d="M256,384.54c-4.1,0-7.43-3.33-7.43-7.43v-44.22c0-4.1,3.33-7.43,7.43-7.43s7.43,3.33,7.43,7.43v44.22c0,4.1-3.33,7.43-7.43,7.43Z"/>
  <path class="st0" d="M360.88,323.99c-1.26,0-2.54-.32-3.71-1l-38.29-22.11c-3.55-2.05-4.77-6.59-2.72-10.15,2.05-3.55,6.59-4.77,10.15-2.72l38.29,22.11c3.55,2.05,4.77,6.59,2.72,10.15-1.37,2.38-3.87,3.72-6.44,3.72Z"/>
  <path class="st0" d="M322.6,224.98c-2.57,0-5.07-1.33-6.44-3.72-2.05-3.55-.83-8.1,2.72-10.15l38.29-22.11c3.55-2.05,8.1-.83,10.15,2.72s.83,8.1-2.72,10.15l-38.29,22.11c-1.17.68-2.45,1-3.71,1Z"/>
  <path class="st0" d="M256,385.7c-1.9,0-3.8-.73-5.25-2.18l-42.9-42.9-1.06-.61-58.6-15.7c-3.96-1.06-6.32-5.13-5.25-9.1l15.7-58.6v-1.23l-15.7-58.6c-1.06-3.96,1.29-8.04,5.25-9.1l58.6-15.7,1.06-.61,42.9-42.9c2.79-2.79,7.72-2.79,10.51,0l42.9,42.9,1.06.61,58.6,15.7c3.96,1.06,6.32,5.13,5.25,9.1l-15.7,58.6v1.23l15.7,58.6c1.06,3.96-1.29,8.04-5.25,9.1l-58.6,15.7-1.06.61-42.9,42.9c-1.45,1.45-3.35,2.18-5.25,2.18h-.01ZM159.21,311.89l52.37,14.03c.63.17,1.23.42,1.79.74l2.76,1.59c.56.32,1.08.72,1.54,1.18l38.34,38.33,38.34-38.33c.46-.46.98-.86,1.54-1.18l2.76-1.59c.56-.32,1.16-.57,1.79-.74l52.37-14.03-14.03-52.37c-.17-.63-.25-1.27-.25-1.92v-3.18c0-.65.09-1.3.25-1.92l14.03-52.37-52.37-14.03c-.63-.17-1.23-.42-1.79-.74l-2.76-1.59c-.56-.32-1.08-.72-1.54-1.18l-38.34-38.34-38.34,38.34c-.46.46-.98.86-1.54,1.18l-2.76,1.59c-.56.32-1.16.57-1.79.74l-52.37,14.03,14.03,52.37c.17.63.25,1.27.25,1.92v3.18c0,.65-.09,1.3-.25,1.92l-14.03,52.37Z"/>
  <path class="st0" d="M256,340.33h0c-1.97,0-3.86-.78-5.25-2.18l-26.74-26.74-36.53-9.79c-3.96-1.06-6.32-5.13-5.25-9.1l9.79-36.53-9.79-36.53c-1.06-3.96,1.29-8.04,5.25-9.1l36.53-9.79,26.74-26.74c2.79-2.79,7.72-2.79,10.51,0l26.74,26.74,36.53,9.79c3.96,1.06,6.32,5.13,5.25,9.1l-9.79,36.53,9.79,36.53c1.06,3.96-1.29,8.04-5.25,9.1l-36.53,9.79-26.74,26.74c-1.39,1.39-3.28,2.18-5.25,2.18h-.01ZM198.5,289.2l31.27,8.38c1.26.34,2.41,1,3.33,1.92l22.89,22.89,22.89-22.89c.92-.92,2.07-1.59,3.33-1.92l31.27-8.38-8.38-31.27c-.34-1.26-.34-2.59,0-3.85l8.38-31.27-31.27-8.38c-1.26-.34-2.41-1-3.33-1.92l-22.89-22.89-22.89,22.89c-.92.92-2.07,1.59-3.33,1.92l-31.27,8.38,8.38,31.27c.34,1.26.34,2.59,0,3.85l-8.38,31.27h0Z"/>
  <g>
    <path class="st0" d="M261.18,9.5c-.84-2.12-2.89-3.51-5.18-3.51s-4.33,1.39-5.18,3.51l-20.44,51.43c-.52,1.32-.52,2.79,0,4.12l20.44,51.42c.84,2.12,2.89,3.51,5.18,3.51s4.33-1.39,5.18-3.51l20.44-51.42c.52-1.32.52-2.8,0-4.12,0,0-20.44-51.43-20.44-51.43Z"/>
    <path class="st0" d="M103.43,138.33c-.88-1.12-2.16-1.85-3.56-2.06l-54.76-8.01c-2.24-.32-4.49.75-5.63,2.73s-.96,4.45.45,6.24l34.32,43.41c.88,1.12,2.16,1.85,3.56,2.06l54.76,8.01c.27.04.54.06.81.06,1.97,0,3.82-1.05,4.82-2.79,1.14-1.98.96-4.45-.45-6.24l-34.32-43.42h0Z"/>
    <path class="st0" d="M132.57,321.28l-54.76,8.01c-1.41.21-2.68.94-3.56,2.06l-34.32,43.42c-1.42,1.79-1.6,4.26-.45,6.24,1,1.74,2.85,2.79,4.82,2.79.27,0,.54-.02.81-.06l54.76-8.01c1.41-.21,2.68-.94,3.56-2.06l34.32-43.41c1.41-1.79,1.6-4.26.45-6.24-1.14-1.98-3.38-3.05-5.63-2.73h0Z"/>
    <path class="st0" d="M261.18,395.53c-.84-2.12-2.89-3.51-5.18-3.51s-4.33,1.39-5.18,3.51l-20.44,51.43c-.52,1.32-.52,2.8,0,4.12l20.44,51.42c.84,2.12,2.89,3.51,5.18,3.51s4.33-1.39,5.18-3.51l20.44-51.42c.52-1.32.52-2.8,0-4.12l-20.44-51.43h0Z"/>
    <path class="st0" d="M437.75,331.35c-.88-1.12-2.16-1.85-3.56-2.06l-54.76-8.01c-2.25-.31-4.49.75-5.63,2.73s-.96,4.45.45,6.24l34.32,43.41c.88,1.12,2.16,1.85,3.56,2.06l54.75,8.01c.27.04.54.06.81.06,1.97,0,3.82-1.05,4.82-2.79,1.14-1.98.96-4.45-.45-6.24l-34.31-43.42h0Z"/>
    <path class="st0" d="M378.62,190.78c.27,0,.54-.02.81-.06l54.76-8.01c1.41-.21,2.68-.94,3.56-2.06l34.31-43.41c1.42-1.79,1.6-4.26.45-6.24-1.14-1.98-3.39-3.06-5.63-2.73l-54.75,8.01c-1.41.21-2.68.94-3.56,2.06l-34.32,43.42c-1.42,1.79-1.6,4.26-.45,6.24,1,1.74,2.85,2.79,4.82,2.79h0Z"/>
  </g>
  <path class="st0" d="M177.32,127.84c-.64,0-1.29-.08-1.92-.25l-33.15-8.88c-3.96-1.06-6.32-5.13-5.25-9.1,1.06-3.96,5.13-6.33,9.1-5.25l25.98,6.96,7.21-26.92c1.06-3.97,5.14-6.33,9.1-5.25,3.96,1.06,6.32,5.13,5.25,9.1l-9.14,34.09c-.51,1.9-1.75,3.53-3.46,4.51-1.14.66-2.42,1-3.71,1h0Z"/>
  <path class="st0" d="M74.96,288.04c-1.9,0-3.8-.73-5.25-2.18-2.9-2.9-2.9-7.6,0-10.51l19.02-19.02-19.7-19.7c-2.9-2.9-2.9-7.6,0-10.51,2.9-2.9,7.61-2.9,10.51,0l24.96,24.96c2.9,2.9,2.9,7.6,0,10.51l-24.27,24.27c-1.45,1.45-3.35,2.18-5.25,2.18h-.02Z"/>
  <path class="st0" d="M186.79,432.52c-3.28,0-6.28-2.19-7.17-5.51l-6.96-25.98-26.92,7.21c-3.97,1.07-8.04-1.29-9.1-5.25-1.06-3.96,1.29-8.04,5.25-9.1l34.09-9.14c1.9-.52,3.93-.25,5.64.74,1.71.98,2.95,2.61,3.46,4.51l8.88,33.15c1.06,3.96-1.29,8.04-5.25,9.1-.64.17-1.29.26-1.93.26h0Z"/>
  <path class="st0" d="M325.55,433.11c-.64,0-1.28-.08-1.93-.26-3.96-1.06-6.32-5.13-5.25-9.1l9.14-34.09c1.06-3.96,5.13-6.33,9.1-5.25l33.15,8.88c3.96,1.06,6.32,5.13,5.25,9.1-1.06,3.96-5.14,6.31-9.1,5.25l-25.98-6.96-7.21,26.92c-.89,3.32-3.89,5.51-7.17,5.51h0Z"/>
  <path class="st0" d="M437.72,288.04c-1.9,0-3.8-.73-5.25-2.18l-24.96-24.96c-2.9-2.9-2.9-7.6,0-10.51l24.27-24.27c2.9-2.9,7.61-2.9,10.51,0,2.9,2.9,2.9,7.6,0,10.51l-19.02,19.02,19.7,19.7c2.9,2.9,2.9,7.6,0,10.51-1.45,1.45-3.35,2.18-5.25,2.18h0Z"/>
  <path class="st0" d="M334.08,127.49c-3.28,0-6.28-2.19-7.17-5.51l-8.88-33.15c-1.06-3.96,1.29-8.04,5.25-9.1,3.96-1.07,8.04,1.29,9.1,5.25l6.96,25.98,26.92-7.21c3.96-1.08,8.03,1.29,9.1,5.25,1.06,3.96-1.29,8.04-5.25,9.1l-34.09,9.13c-.64.17-1.29.26-1.93.26h-.01Z"/>
  <path class="st0" d="M195.67,159.96c-.64,0-1.28-.08-1.93-.26l-33.15-8.88c-3.96-1.06-6.32-5.13-5.25-9.1,1.06-3.96,5.13-6.33,9.1-5.25l25.98,6.96,7.21-26.92c1.06-3.96,5.13-6.33,9.1-5.25,3.96,1.06,6.32,5.13,5.25,9.1l-9.14,34.09c-.89,3.32-3.89,5.51-7.17,5.51h0Z"/>
  <path class="st0" d="M111.96,288.21c-1.9,0-3.8-.73-5.25-2.18-2.9-2.9-2.9-7.6,0-10.51l19.02-19.02-19.7-19.7c-2.9-2.9-2.9-7.61,0-10.51s7.6-2.9,10.51,0l24.96,24.96c1.39,1.39,2.18,3.28,2.18,5.25s-.78,3.86-2.18,5.25l-24.27,24.27c-1.45,1.45-3.35,2.18-5.25,2.18h-.02Z"/>
  <path class="st0" d="M205.44,400.57c-3.28,0-6.28-2.19-7.17-5.51l-6.96-25.98-26.92,7.21c-3.96,1.07-8.04-1.29-9.1-5.25-1.06-3.96,1.29-8.04,5.25-9.1l34.09-9.13c3.96-1.07,8.03,1.29,9.1,5.25l8.88,33.15c1.06,3.96-1.29,8.04-5.25,9.1-.64.17-1.29.26-1.93.26h0Z"/>
  <path class="st0" d="M307.2,400.99c-.64,0-1.28-.08-1.93-.26-3.96-1.06-6.32-5.13-5.25-9.1l9.14-34.09c.51-1.9,1.75-3.53,3.46-4.51,1.7-.99,3.73-1.26,5.64-.74l33.15,8.88c3.96,1.06,6.32,5.13,5.25,9.1-1.06,3.96-5.15,6.32-9.1,5.25l-25.98-6.96-7.21,26.92c-.89,3.32-3.89,5.51-7.17,5.51h0Z"/>
  <path class="st0" d="M400.73,287.87c-1.9,0-3.8-.73-5.25-2.18l-24.96-24.96c-1.39-1.39-2.18-3.28-2.18-5.25s.78-3.86,2.18-5.25l24.27-24.27c2.9-2.9,7.61-2.9,10.51,0,2.9,2.9,2.9,7.6,0,10.51l-19.02,19.01,19.7,19.7c2.9,2.9,2.9,7.6,0,10.51-1.45,1.45-3.35,2.18-5.25,2.18h0Z"/>
  <path class="st0" d="M315.44,159.45c-1.29,0-2.58-.34-3.71-1-1.71-.98-2.95-2.61-3.46-4.51l-8.88-33.15c-1.06-3.96,1.29-8.04,5.25-9.1,3.95-1.07,8.04,1.29,9.1,5.25l6.96,25.98,26.92-7.21c3.96-1.07,8.04,1.29,9.1,5.25s-1.29,8.04-5.25,9.1l-34.09,9.14c-.63.17-1.28.25-1.92.25h-.02Z"/>
  <path class="st0" d="M207.51,179.43c-2.57,0-5.07-1.33-6.44-3.72l-26.94-46.66c-2.05-3.55-.83-8.1,2.72-10.15,3.55-2.06,8.1-.83,10.15,2.72l26.94,46.66c2.05,3.55.83,8.1-2.72,10.15-1.17.68-2.45,1-3.71,1h0Z"/>
  <path class="st0" d="M159,263.43h-53.87c-4.1,0-7.43-3.33-7.43-7.43s3.33-7.43,7.43-7.43h53.87c4.1,0,7.43,3.33,7.43,7.43s-3.33,7.43-7.43,7.43Z"/>
  <path class="st0" d="M180.55,394.1c-1.26,0-2.54-.32-3.71-1-3.55-2.05-4.77-6.59-2.72-10.15l26.94-46.66c2.05-3.55,6.6-4.77,10.15-2.72,3.55,2.05,4.77,6.59,2.72,10.15l-26.94,46.66c-1.37,2.38-3.87,3.72-6.44,3.72h0Z"/>
  <path class="st0" d="M331.45,394.1c-2.57,0-5.07-1.33-6.44-3.72l-26.94-46.66c-2.05-3.55-.83-8.1,2.72-10.15s8.1-.83,10.15,2.72l26.94,46.66c2.05,3.55.83,8.1-2.72,10.15-1.17.68-2.45,1-3.71,1Z"/>
  <path class="st0" d="M406.88,263.43h-53.87c-4.1,0-7.43-3.33-7.43-7.43s3.33-7.43,7.43-7.43h53.87c4.1,0,7.43,3.33,7.43,7.43s-3.33,7.43-7.43,7.43Z"/>
  <path class="st0" d="M304.5,179.43c-1.26,0-2.54-.32-3.71-1-3.55-2.05-4.77-6.59-2.72-10.15l26.94-46.66c2.05-3.55,6.59-4.78,10.15-2.72,3.55,2.05,4.77,6.59,2.72,10.15l-26.94,46.66c-1.37,2.38-3.87,3.72-6.44,3.72Z"/>
</svg>