<?xml version="1.0" encoding="UTF-8"?>
<svg id="Layer_1" xmlns="http://www.w3.org/2000/svg" version="1.1" viewBox="0 0 512 512">
  <!-- Generator: Adobe Illustrator 30.0.0, SVG Export Plug-In . SVG Version: 2.1.1 Build 123)  -->
  <defs>
    <style>
      .st0 {
        fill: #fff;
      }
    </style>
  </defs>
  <g id="Layer_5">
    <g>
      <path class="st0" d="M256.05,281c-2.74,0-5.49-.36-8.2-1.09-8.13-2.18-14.92-7.39-19.13-14.68h0c-8.68-15.04-3.51-34.35,11.53-43.03,7.28-4.21,15.77-5.33,23.9-3.15,8.13,2.18,14.92,7.39,19.13,14.68s5.32,15.77,3.15,23.9c-2.18,8.13-7.39,14.92-14.68,19.13-4.85,2.8-10.24,4.23-15.7,4.23h0ZM244.09,256.37c1.84,3.18,4.8,5.46,8.35,6.41,3.54.96,7.25.46,10.43-1.37,3.18-1.84,5.46-4.8,6.41-8.35.95-3.55.46-7.25-1.37-10.43-1.84-3.18-4.8-5.46-8.35-6.41-3.55-.96-7.25-.47-10.43,1.37-6.57,3.79-8.82,12.22-5.04,18.78h0Z"/>
      <g>
        <path class="st0" d="M256.18,115.1c2.73,0,5.18-1.66,6.19-4.2l19.05-47.94c.63-1.58.63-3.34,0-4.92l-19.05-47.94c-1.01-2.53-3.46-4.2-6.19-4.2s-5.18,1.66-6.19,4.2l-19.05,47.94c-.63,1.58-.63,3.34,0,4.92l19.05,47.94c1.01,2.53,3.46,4.2,6.19,4.2Z"/>
        <path class="st0" d="M77.82,183.83l51.04,7.47c.32.05.65.07.97.07,2.35,0,4.56-1.25,5.76-3.33,1.36-2.36,1.15-5.31-.54-7.46l-31.99-40.47c-1.05-1.33-2.58-2.21-4.26-2.46l-51.04-7.47c-2.68-.36-5.36.9-6.73,3.26-1.36,2.36-1.15,5.31.54,7.46l31.99,40.47c1.05,1.33,2.58,2.21,4.26,2.46Z"/>
        <path class="st0" d="M131.73,325.68l-51.04,7.47c-1.68.25-3.2,1.13-4.26,2.46l-31.99,40.47c-1.69,2.14-1.91,5.09-.54,7.46,1.2,2.08,3.41,3.33,5.76,3.33.32,0,.64-.02.97-.07l51.04-7.47c1.68-.25,3.2-1.13,4.26-2.46l31.99-40.47c1.69-2.14,1.91-5.09.54-7.46-1.37-2.36-4.04-3.64-6.73-3.26h0Z"/>
        <path class="st0" d="M268.1,401.1c-1.01-2.53-3.46-4.2-6.19-4.2s-5.18,1.66-6.19,4.2l-19.05,47.94c-.63,1.58-.63,3.34,0,4.92l19.05,47.94c1.01,2.53,3.46,4.2,6.19,4.2s5.18-1.66,6.19-4.2l19.05-47.94c.63-1.58.63-3.34,0-4.92l-19.05-47.94Z"/>
        <path class="st0" d="M476.52,371.1l-31.99-40.47c-1.05-1.33-2.58-2.21-4.26-2.46l-51.04-7.47c-2.69-.37-5.36.9-6.73,3.26-1.36,2.36-1.15,5.32.54,7.46l31.99,40.47c1.05,1.33,2.58,2.21,4.26,2.46l51.04,7.47c.32.05.65.07.97.07,2.35,0,4.56-1.25,5.76-3.33,1.37-2.36,1.15-5.32-.54-7.46h0Z"/>
        <path class="st0" d="M386.37,186.32l51.04-7.47c1.68-.25,3.2-1.13,4.26-2.46l31.99-40.47c1.69-2.14,1.91-5.09.54-7.46-1.36-2.36-4.03-3.63-6.73-3.26l-51.04,7.47c-1.68.25-3.2,1.13-4.26,2.46l-31.99,40.47c-1.69,2.14-1.91,5.09-.54,7.46,1.2,2.08,3.41,3.33,5.76,3.33.32,0,.64-.02.97-.07h0Z"/>
      </g>
      <g>
        <path class="st0" d="M256,170.64c-4.9,0-8.87-3.97-8.87-8.87,0-10.35-8.42-18.77-18.77-18.77-4.39,0-8.49,1.46-11.88,4.23-3.8,3.1-9.39,2.55-12.49-1.25-3.1-3.79-2.55-9.38,1.25-12.49,6.5-5.32,14.71-8.25,23.12-8.25,11.04,0,20.95,4.92,27.65,12.68,6.7-7.76,16.61-12.68,27.65-12.68,8.41,0,16.62,2.93,23.12,8.25,3.79,3.1,4.35,8.69,1.25,12.49-3.11,3.79-8.7,4.35-12.49,1.25-3.38-2.77-7.49-4.23-11.88-4.23-10.35,0-18.77,8.42-18.77,18.77,0,4.9-3.97,8.87-8.87,8.87h-.02Z"/>
        <path class="st0" d="M256,202.87c-4.9,0-8.87-3.97-8.87-8.87v-32.23c0-4.9,3.97-8.87,8.87-8.87s8.87,3.97,8.87,8.87v32.23c0,4.9-3.97,8.87-8.87,8.87Z"/>
      </g>
      <g>
        <path class="st0" d="M138.91,242.9c-4.27,0-8.04-3.09-8.75-7.44-1.36-8.29.21-16.86,4.42-24.14,4.88-8.45,12.75-14.49,22.18-17.02.87-.23,1.74-.43,2.61-.6-.29-.84-.55-1.69-.78-2.56-2.53-9.42-1.23-19.27,3.65-27.72,4.21-7.28,10.85-12.93,18.7-15.89,4.59-1.75,9.7.58,11.44,5.16,1.73,4.58-.58,9.71-5.16,11.44-4.09,1.55-7.41,4.37-9.6,8.17-5.18,8.97-2.09,20.47,6.87,25.65,2.85,1.64,4.44,4.63,4.44,7.7,0,1.5-.38,3.03-1.19,4.43-2.45,4.24-7.88,5.7-12.12,3.25-8.97-5.18-20.47-2.09-25.65,6.87-2.19,3.8-2.98,8.09-2.27,12.4.79,4.84-2.49,9.4-7.33,10.19-.48.08-.97.12-1.44.12h-.02Z"/>
        <path class="st0" d="M207.94,230.62c-1.51,0-3.03-.38-4.43-1.19l-27.91-16.12c-4.24-2.45-5.7-7.88-3.25-12.12,2.45-4.25,7.88-5.7,12.12-3.25l27.91,16.12c4.24,2.45,5.7,7.88,3.25,12.12-1.64,2.85-4.63,4.44-7.69,4.44Z"/>
      </g>
      <g>
        <path class="st0" d="M184.06,352.03c-1.04,0-2.1-.18-3.14-.58-7.85-2.97-14.49-8.61-18.7-15.9-4.88-8.45-6.18-18.29-3.65-27.71.23-.87.5-1.73.79-2.58-10.07-1.93-19.28-8.05-24.79-17.6-4.21-7.28-5.77-15.86-4.42-24.14.79-4.84,5.35-8.13,10.19-7.33,4.84.79,8.12,5.35,7.33,10.19-.71,4.32.08,8.6,2.27,12.4,5.18,8.97,16.69,12.05,25.65,6.87,4.25-2.45,9.67-1,12.12,3.25.81,1.4,1.19,2.92,1.19,4.43,0,3.07-1.59,6.05-4.44,7.7-4.34,2.5-7.45,6.55-8.75,11.4-1.3,4.84-.63,9.9,1.88,14.25,2.19,3.8,5.51,6.62,9.6,8.17,4.58,1.73,6.9,6.85,5.16,11.44-1.34,3.55-4.72,5.74-8.3,5.74h0Z"/>
        <path class="st0" d="M180.04,302.23c-3.07,0-6.05-1.59-7.69-4.44-2.45-4.24-1-9.67,3.25-12.12l27.91-16.12c4.24-2.46,9.67-1,12.12,3.25,2.45,4.24,1,9.67-3.25,12.12l-27.91,16.12c-1.4.81-2.92,1.19-4.43,1.19Z"/>
      </g>
      <g>
        <path class="st0" d="M283.65,373.74c-11.04,0-20.94-4.92-27.65-12.68-6.7,7.76-16.61,12.68-27.65,12.68-8.41,0-16.62-2.93-23.12-8.24-3.79-3.1-4.35-8.7-1.25-12.49,3.11-3.8,8.7-4.35,12.49-1.25,3.38,2.77,7.49,4.23,11.88,4.23,10.35,0,18.77-8.42,18.77-18.77,0-4.9,3.97-8.87,8.87-8.87s8.87,3.97,8.87,8.87c0,10.35,8.42,18.77,18.77,18.77,4.39,0,8.49-1.46,11.88-4.23,3.79-3.1,9.38-2.54,12.49,1.25,3.1,3.79,2.55,9.39-1.25,12.49-6.5,5.32-14.71,8.24-23.12,8.24h.02Z"/>
        <path class="st0" d="M256,346.09c-4.9,0-8.87-3.97-8.87-8.87v-32.23c0-4.9,3.97-8.87,8.87-8.87s8.87,3.97,8.87,8.87v32.23c0,4.9-3.97,8.87-8.87,8.87Z"/>
      </g>
      <g>
        <path class="st0" d="M327.94,352.03c-3.59,0-6.96-2.19-8.3-5.74-1.73-4.58.58-9.71,5.16-11.44,4.09-1.55,7.41-4.37,9.6-8.17,2.51-4.34,3.17-9.4,1.87-14.25-1.3-4.84-4.4-8.89-8.75-11.4-2.85-1.64-4.44-4.63-4.44-7.7,0-1.5.38-3.03,1.19-4.43,2.45-4.24,7.88-5.7,12.12-3.25,8.97,5.17,20.47,2.09,25.65-6.87,2.19-3.8,2.98-8.09,2.27-12.4-.79-4.84,2.49-9.4,7.33-10.19,4.83-.79,9.4,2.49,10.19,7.33,1.35,8.29-.21,16.86-4.42,24.14-5.51,9.55-14.72,15.67-24.79,17.6.29.84.56,1.7.79,2.58,2.53,9.42,1.23,19.27-3.65,27.71-4.2,7.28-10.84,12.93-18.7,15.9-1.03.39-2.1.58-3.14.58h.02Z"/>
        <path class="st0" d="M331.96,302.23c-1.51,0-3.03-.38-4.43-1.19l-27.91-16.12c-4.24-2.45-5.7-7.88-3.25-12.12s7.88-5.7,12.12-3.25l27.91,16.12c4.24,2.45,5.7,7.88,3.25,12.12-1.64,2.85-4.63,4.44-7.69,4.44Z"/>
      </g>
      <g>
        <path class="st0" d="M373.1,242.9c-.47,0-.96-.04-1.44-.12-4.84-.79-8.12-5.35-7.33-10.19.7-4.32-.08-8.61-2.27-12.4-2.51-4.34-6.56-7.45-11.4-8.75s-9.9-.63-14.25,1.88c-4.24,2.45-9.67,1-12.12-3.25-.81-1.4-1.19-2.92-1.19-4.43,0-3.07,1.59-6.05,4.44-7.7,8.97-5.18,12.05-16.68,6.87-25.65-2.19-3.8-5.51-6.62-9.6-8.17-4.58-1.73-6.89-6.86-5.16-11.44s6.85-6.9,11.44-5.16c7.85,2.97,14.49,8.61,18.7,15.89,5.52,9.55,6.21,20.59,2.84,30.27.88.17,1.76.37,2.63.6,9.42,2.52,17.3,8.57,22.18,17.02,4.2,7.28,5.77,15.85,4.42,24.14-.71,4.35-4.48,7.45-8.75,7.45h-.01Z"/>
        <path class="st0" d="M304.07,230.62c-3.07,0-6.05-1.59-7.69-4.44-2.45-4.24-1-9.67,3.25-12.12l27.91-16.12c4.24-2.45,9.67-1,12.12,3.25,2.45,4.24,1,9.67-3.25,12.12l-27.91,16.12c-1.4.81-2.92,1.19-4.43,1.19Z"/>
      </g>
      <g>
        <path class="st0" d="M182.38,131.6c-3.07,0-6.05-1.59-7.69-4.44l-44.65-77.33c-2.45-4.24-1-9.67,3.25-12.12,4.24-2.45,9.67-1,12.12,3.25l44.65,77.33c2.45,4.24,1,9.67-3.25,12.12-1.4.81-2.92,1.19-4.43,1.19Z"/>
        <path class="st0" d="M171.52,112.34c-.76,0-1.53-.1-2.3-.31l-38.43-10.3c-4.73-1.27-7.54-6.13-6.27-10.87,1.27-4.74,6.13-7.56,10.87-6.27l29.86,8,8.25-30.78c1.27-4.74,6.13-7.57,10.87-6.27,4.73,1.27,7.54,6.13,6.27,10.87l-10.55,39.36c-1.06,3.97-4.65,6.58-8.56,6.58h-.01Z"/>
      </g>
      <g>
        <path class="st0" d="M109.4,258.75H20.11c-4.9,0-8.87-3.97-8.87-8.87s3.97-8.87,8.87-8.87h89.3c4.9,0,8.87,3.97,8.87,8.87s-3.97,8.87-8.87,8.87h-.01Z"/>
        <path class="st0" d="M59.16,286.65c-2.27,0-4.54-.87-6.27-2.6-3.47-3.46-3.47-9.08,0-12.55l21.85-21.86-22.53-22.54c-3.47-3.46-3.47-9.08,0-12.55,3.46-3.47,9.09-3.47,12.55,0l28.81,28.81c3.47,3.46,3.47,9.08,0,12.55l-28.13,28.13c-1.73,1.73-4,2.6-6.27,2.6h-.01Z"/>
      </g>
      <g>
        <path class="st0" d="M138.38,462.85c-1.51,0-3.03-.38-4.43-1.19-4.24-2.45-5.7-7.88-3.25-12.12l44.65-77.33c2.45-4.24,7.88-5.7,12.12-3.25,4.24,2.45,5.7,7.88,3.25,12.12l-44.65,77.33c-1.64,2.85-4.63,4.44-7.69,4.44h0Z"/>
        <path class="st0" d="M182.07,442.98c-3.92,0-7.5-2.62-8.56-6.58l-8-29.85-30.78,8.25c-4.73,1.28-9.6-1.54-10.87-6.27-1.27-4.73,1.54-9.6,6.27-10.87l39.36-10.55c4.72-1.29,9.6,1.54,10.87,6.27l10.3,38.43c1.27,4.73-1.54,9.6-6.27,10.87-.77.21-1.54.31-2.3.31h-.02Z"/>
      </g>
      <g>
        <path class="st0" d="M374.29,462.46c-3.07,0-6.05-1.59-7.69-4.44l-44.65-77.33c-2.45-4.24-1-9.67,3.25-12.12,4.25-2.46,9.67-1,12.12,3.25l44.65,77.33c2.45,4.24,1,9.67-3.25,12.12-1.4.81-2.92,1.19-4.43,1.19h0Z"/>
        <path class="st0" d="M329.95,443.75c-.76,0-1.53-.1-2.3-.31-4.73-1.27-7.54-6.13-6.27-10.87l10.54-39.36c.61-2.27,2.1-4.21,4.13-5.39,2.04-1.18,4.46-1.5,6.73-.89l38.43,10.3c4.73,1.27,7.54,6.13,6.27,10.87-1.27,4.73-6.14,7.54-10.87,6.27l-29.86-8-8.25,30.78c-1.06,3.96-4.65,6.58-8.56,6.58v.02Z"/>
      </g>
      <g>
        <path class="st0" d="M491.89,257.98h-89.3c-4.9,0-8.87-3.97-8.87-8.87s3.97-8.87,8.87-8.87h89.3c4.9,0,8.87,3.97,8.87,8.87s-3.97,8.87-8.87,8.87Z"/>
        <path class="st0" d="M453.52,287.02c-2.27,0-4.54-.87-6.27-2.6l-28.81-28.81c-1.66-1.66-2.6-3.92-2.6-6.27s.94-4.61,2.6-6.27l28.13-28.13c3.47-3.47,9.09-3.47,12.55,0,3.47,3.46,3.47,9.08,0,12.55l-21.86,21.86,22.54,22.54c3.47,3.46,3.47,9.08,0,12.55-1.73,1.73-4,2.6-6.27,2.6v-.02Z"/>
      </g>
      <g>
        <path class="st0" d="M328.96,131.22c-1.51,0-3.03-.38-4.43-1.19-4.24-2.45-5.7-7.88-3.25-12.12l44.65-77.33c2.45-4.25,7.88-5.7,12.12-3.25s5.7,7.88,3.25,12.12l-44.65,77.33c-1.64,2.85-4.63,4.44-7.69,4.44Z"/>
        <path class="st0" d="M340.22,112.18c-1.54,0-3.08-.4-4.44-1.19-2.04-1.18-3.53-3.12-4.13-5.39l-10.3-38.43c-1.27-4.73,1.54-9.6,6.27-10.87,4.73-1.28,9.6,1.54,10.87,6.27l8,29.86,30.79-8.25c4.73-1.29,9.6,1.54,10.87,6.27,1.27,4.73-1.54,9.6-6.27,10.87l-39.36,10.55c-.76.2-1.53.3-2.3.3h0Z"/>
      </g>
    </g>
  </g>
</svg>