<?xml version="1.0" encoding="UTF-8"?>
<svg id="Layer_1" xmlns="http://www.w3.org/2000/svg" version="1.1" viewBox="0 0 512 512">
  <!-- Generator: Adobe Illustrator 30.0.0, SVG Export Plug-In . SVG Version: 2.1.1 Build 123)  -->
  <defs>
    <style>
      .st0 {
        fill: #fff;
      }
    </style>
  </defs>
  <path class="st0" d="M256.48,199.54h-.04c-4.25-.02-7.68-3.49-7.66-7.74l.7-128.64c.02-4.25,3.67-7.65,7.74-7.66,4.25.02,7.68,3.49,7.66,7.74l-.7,128.64c-.02,4.24-3.47,7.66-7.7,7.66h0Z"/>
  <path class="st0" d="M256,292.99c-20.4,0-36.99-16.59-36.99-36.99s16.59-36.99,36.99-36.99,36.99,16.59,36.99,36.99-16.59,36.99-36.99,36.99h0ZM256,234.4c-11.91,0-21.6,9.69-21.6,21.6s9.69,21.6,21.6,21.6,21.59-9.69,21.59-21.6-9.69-21.6-21.59-21.6Z"/>
  <path class="st0" d="M191.85,377.37c-1.29,0-2.58-.32-3.76-.98-2.71-1.52-4.24-4.51-3.89-7.6l8.77-76.11-70.37-28.26c-2.88-1.16-4.79-3.93-4.83-7.04-.04-3.1,1.79-5.93,4.64-7.17l70.3-30.46-10.71-75.07c-.44-3.08,1.01-6.11,3.68-7.7s6.03-1.42,8.53.43l61.53,45.65,59.65-46.81c2.44-1.92,5.8-2.18,8.51-.66,2.71,1.52,4.24,4.51,3.89,7.6l-8.77,76.11,70.37,28.26c2.88,1.16,4.79,3.93,4.83,7.04.04,3.1-1.79,5.93-4.64,7.17l-70.3,30.46,10.71,75.07c.44,3.08-1.01,6.11-3.68,7.7-2.67,1.59-6.03,1.42-8.53-.43l-61.53-45.65-59.65,46.81c-1.39,1.09-3.07,1.64-4.75,1.64h0ZM145.46,257.01l58.7,23.57c3.22,1.29,5.18,4.58,4.78,8.02l-7.33,63.62,49.76-39.05c2.73-2.14,6.55-2.2,9.34-.13l51.43,38.16-8.94-62.62c-.49-3.44,1.38-6.77,4.56-8.15l58.76-25.46-58.7-23.57c-3.22-1.29-5.18-4.58-4.78-8.02l7.33-63.62-49.76,39.05c-2.73,2.14-6.55,2.2-9.34.13l-51.43-38.16,8.94,62.62c.49,3.44-1.38,6.77-4.56,8.15l-58.77,25.46h.01Z"/>
  <path class="st0" d="M256.26,126.67c-1.58,0-3.16-.49-4.51-1.46l-35.43-25.63c-3.44-2.49-4.22-7.3-1.73-10.75s7.31-4.22,10.75-1.73l30.89,22.35,31.92-23.33c3.43-2.51,8.25-1.76,10.76,1.67s1.76,8.25-1.67,10.76l-36.43,26.63c-1.35.99-2.95,1.48-4.54,1.48h-.01Z"/>
  <path class="st0" d="M200.67,231.21c-1.32,0-2.66-.34-3.88-1.05l-111.06-64.93c-3.67-2.15-4.91-6.86-2.76-10.53s6.85-4.91,10.53-2.76l111.06,64.93c3.67,2.15,4.91,6.86,2.76,10.53-1.43,2.45-4.01,3.81-6.65,3.81h0Z"/>
  <path class="st0" d="M97.56,212.83c-2.94,0-5.75-1.7-7.03-4.55-1.74-3.88,0-8.43,3.88-10.17l34.8-15.58-4.24-39.3c-.46-4.23,2.6-8.02,6.83-8.48,4.25-.44,8.03,2.6,8.48,6.83l4.84,44.87c.36,3.32-1.46,6.49-4.51,7.85l-39.91,17.87c-1.02.46-2.09.67-3.14.67h0Z"/>
  <path class="st0" d="M88.44,359.08c-2.68,0-5.28-1.4-6.69-3.89-2.11-3.69-.82-8.39,2.87-10.5l111.76-63.71c3.7-2.1,8.4-.82,10.5,2.87,2.11,3.69.82,8.39-2.87,10.5l-111.76,63.71c-1.2.69-2.51,1.01-3.81,1.01h0Z"/>
  <path class="st0" d="M132.73,375.48c-.26,0-.53-.01-.8-.04-4.23-.43-7.3-4.22-6.87-8.44l3.9-37.93-36.16-15.98c-3.89-1.72-5.65-6.26-3.93-10.15,1.72-3.88,6.26-5.63,10.15-3.93l41.28,18.24c3.05,1.35,4.89,4.51,4.54,7.83l-4.48,43.5c-.41,3.96-3.75,6.91-7.65,6.91h.02Z"/>
  <path class="st0" d="M254.82,456.5h-.04c-4.25-.02-7.68-3.49-7.66-7.74l.7-128.64c.02-4.24,3.47-7.66,7.7-7.66h.04c4.25.02,7.68,3.49,7.66,7.74l-.7,128.64c-.02,4.24-3.47,7.66-7.7,7.66h0Z"/>
  <path class="st0" d="M219.31,427.35c-2.37,0-4.71-1.09-6.22-3.16-2.51-3.43-1.76-8.25,1.67-10.76l36.44-26.63c2.69-1.97,6.35-1.98,9.05-.02l35.43,25.62c3.44,2.49,4.22,7.3,1.73,10.75s-7.3,4.22-10.75,1.73l-30.9-22.34-31.92,23.33c-1.37,1-2.96,1.48-4.54,1.48h0Z"/>
  <path class="st0" d="M422.37,361.13c-1.32,0-2.66-.34-3.88-1.05l-111.06-64.93c-3.67-2.15-4.91-6.86-2.76-10.53,2.14-3.67,6.86-4.91,10.53-2.76l111.06,64.93c3.67,2.15,4.91,6.86,2.76,10.53-1.43,2.45-4.01,3.81-6.65,3.81Z"/>
  <path class="st0" d="M379.38,377.3c-3.88,0-7.22-2.93-7.64-6.87l-4.84-44.87c-.36-3.32,1.46-6.49,4.51-7.85l39.91-17.87c3.88-1.74,8.43,0,10.17,3.88,1.74,3.88,0,8.43-3.88,10.17l-34.8,15.58,4.24,39.3c.46,4.23-2.6,8.02-6.83,8.48-.28.03-.56.05-.84.05h0Z"/>
  <path class="st0" d="M311.81,232.03c-2.68,0-5.28-1.4-6.69-3.89-2.11-3.69-.82-8.39,2.87-10.5l111.76-63.71c3.7-2.1,8.4-.82,10.5,2.87,2.11,3.69.82,8.39-2.87,10.5l-111.76,63.71c-1.2.69-2.51,1.01-3.81,1.01h0Z"/>
  <g>
    <path class="st0" d="M257.18,4.84c-10.17,0-18.45,8.28-18.45,18.45s8.28,18.45,18.45,18.45,18.45-8.28,18.45-18.45-8.28-18.45-18.45-18.45Z"/>
    <path class="st0" d="M64.29,122.64c-8.8-5.09-20.11-2.06-25.2,6.75-2.46,4.27-3.12,9.24-1.84,14,1.27,4.76,4.33,8.74,8.6,11.2,2.84,1.64,6,2.48,9.2,2.48,1.6,0,3.21-.21,4.8-.64,4.76-1.27,8.74-4.33,11.2-8.6,5.09-8.81,2.06-20.12-6.75-25.2h0Z"/>
    <path class="st0" d="M58.65,353.51c-4.76-1.27-9.73-.62-14,1.84-8.81,5.09-11.84,16.39-6.75,25.2,2.46,4.27,6.44,7.32,11.2,8.6,1.59.43,3.2.64,4.81.64,3.2,0,6.35-.84,9.2-2.48,4.27-2.46,7.32-6.44,8.6-11.2s.62-9.73-1.84-14-6.44-7.32-11.2-8.6h-.02Z"/>
    <path class="st0" d="M254.82,470.25c-10.17,0-18.45,8.28-18.45,18.45s8.28,18.45,18.45,18.45,18.45-8.28,18.45-18.45-8.28-18.45-18.45-18.45h0Z"/>
    <path class="st0" d="M466.16,357.4c-4.27-2.46-9.24-3.11-14-1.84-4.76,1.28-8.74,4.33-11.2,8.6-5.09,8.81-2.06,20.12,6.75,25.2,2.84,1.64,6,2.48,9.2,2.48,1.6,0,3.22-.21,4.81-.64,4.76-1.28,8.74-4.33,11.2-8.6,2.46-4.27,3.12-9.24,1.84-14-1.27-4.76-4.33-8.74-8.6-11.2Z"/>
    <path class="st0" d="M453.35,158.49c1.59.43,3.2.64,4.8.64,3.2,0,6.35-.84,9.2-2.48,8.81-5.09,11.84-16.39,6.75-25.2s-16.39-11.84-25.2-6.75c-8.81,5.09-11.84,16.39-6.75,25.2,2.46,4.27,6.44,7.32,11.2,8.6h0Z"/>
  </g>
  <path class="st0" d="M416.07,213.65c-1.04,0-2.1-.21-3.11-.66l-41.28-18.24c-3.05-1.35-4.89-4.51-4.55-7.83l4.48-43.5c.43-4.23,4.22-7.33,8.44-6.87,4.23.43,7.3,4.22,6.87,8.44l-3.9,37.93,36.16,15.98c3.89,1.72,5.65,6.26,3.93,10.15-1.27,2.88-4.09,4.59-7.05,4.59h0Z"/>
</svg>