<?xml version="1.0" encoding="UTF-8"?>
<svg id="Layer_1" xmlns="http://www.w3.org/2000/svg" version="1.1" viewBox="0 0 512 512">
  <!-- Generator: Adobe Illustrator 30.0.0, SVG Export Plug-In . SVG Version: 2.1.1 Build 123)  -->
  <defs>
    <style>
      .st0 {
        fill: #fff;
      }
    </style>
  </defs>
  <g id="Layer_7">
    <g>
      <path class="st0" d="M256.08,301.8c-15.84,0-31.27-8.21-39.75-22.89-12.63-21.87-5.11-49.94,16.77-62.58,21.88-12.62,49.94-5.11,62.57,16.77,12.63,21.87,5.11,49.94-16.77,62.58-7.19,4.15-15.06,6.13-22.83,6.13h0ZM255.95,227.04c-4.91,0-9.89,1.25-14.44,3.88-13.83,7.99-18.59,25.74-10.6,39.57,7.99,13.84,25.74,18.59,39.57,10.6s18.59-25.74,10.6-39.57c-5.36-9.28-15.12-14.48-25.14-14.48h.01Z"/>
      <path class="st0" d="M257.22,226.86c-4.65,0-8.42-3.77-8.42-8.42v-80.09c0-4.65,3.77-8.42,8.42-8.42s8.42,3.77,8.42,8.42v80.09c0,4.65-3.77,8.42-8.42,8.42Z"/>
      <path class="st0" d="M224.22,206.94c-2.91,0-5.74-1.51-7.3-4.21l-66.3-114.84c-2.32-4.03-.95-9.18,3.08-11.5s9.18-.94,11.5,3.08l66.3,114.84c2.32,4.03.95,9.18-3.08,11.5-1.33.76-2.77,1.13-4.2,1.13Z"/>
      <path class="st0" d="M225.9,209.43c-2.15,0-4.31-.82-5.95-2.47-3.29-3.29-3.29-8.62,0-11.91l30.26-30.26c3.28-3.29,8.62-3.29,11.9,0l30.07,30.07c3.29,3.29,3.29,8.62,0,11.91-3.28,3.29-8.62,3.29-11.9,0l-24.12-24.12-24.31,24.31c-1.64,1.64-3.8,2.47-5.95,2.47h0Z"/>
      <path class="st0" d="M193.32,263c-3.72,0-7.12-2.48-8.12-6.24l-11.08-41.34c-1.2-4.49,1.46-9.11,5.95-10.31l41.08-11.01c4.48-1.21,9.11,1.46,10.31,5.95,1.2,4.49-1.46,9.11-5.95,10.31l-32.95,8.83,8.9,33.21c1.2,4.49-1.46,9.11-5.95,10.31-.73.2-1.46.29-2.18.29h-.01Z"/>
      <path class="st0" d="M223.43,317.99c-.72,0-1.46-.09-2.18-.29l-41.34-11.07c-2.16-.58-4-1.99-5.11-3.92-1.12-1.93-1.42-4.23-.84-6.39l11.01-41.08c1.2-4.49,5.81-7.17,10.31-5.95,4.49,1.2,7.16,5.82,5.95,10.31l-8.83,32.95,33.21,8.9c4.49,1.2,7.16,5.82,5.95,10.31-1.01,3.76-4.41,6.24-8.13,6.24h0Z"/>
      <path class="st0" d="M255.83,349.68c-2.15,0-4.31-.82-5.95-2.47l-30.07-30.07c-3.29-3.29-3.29-8.62,0-11.91,3.28-3.29,8.62-3.29,11.91,0l24.12,24.12,24.31-24.31c3.29-3.29,8.62-3.29,11.91,0s3.29,8.62,0,11.91l-30.27,30.26c-1.64,1.64-3.8,2.47-5.95,2.47h-.01Z"/>
      <path class="st0" d="M288.67,318.2c-3.72,0-7.12-2.48-8.13-6.24-1.2-4.49,1.46-9.11,5.95-10.31l32.95-8.83-8.9-33.21c-1.2-4.49,1.46-9.11,5.95-10.31,4.49-1.21,9.11,1.46,10.31,5.95l11.08,41.34c1.2,4.49-1.46,9.11-5.95,10.31l-41.08,11.01c-.73.2-1.46.29-2.18.29h0Z"/>
      <path class="st0" d="M318.92,263.02c-.72,0-1.46-.09-2.18-.29-4.49-1.2-7.16-5.82-5.95-10.31l8.83-32.95-33.21-8.9c-4.49-1.2-7.16-5.82-5.95-10.31,1.2-4.49,5.82-7.17,10.31-5.95l41.34,11.08c4.49,1.2,7.16,5.82,5.95,10.31l-11.01,41.08c-1.01,3.76-4.41,6.24-8.13,6.24h0Z"/>
      <path class="st0" d="M257.82,146.77h-.61c-1.41,0-2.8-.35-4.04-1.03l-31.31-17.11c-3.46-1.89-5.15-5.94-4.05-9.73l31.07-107.3v-.28c-.02-4.2,3.06-7.77,7.22-8.37,4.17-.6,8.12,1.96,9.29,5.99l31.84,109.95c1.1,3.79-.59,7.84-4.05,9.73l-31.32,17.11c-1.24.68-2.62,1.03-4.03,1.03h-.01ZM235.87,117.09l21.65,11.83,21.65-11.83-21.65-74.78-21.65,74.78Z"/>
      <path class="st0" d="M224.07,244.58c-1.43,0-2.88-.36-4.2-1.13l-69.36-40.04c-4.03-2.33-5.41-7.47-3.08-11.5,2.32-4.02,7.48-5.41,11.5-3.08l69.36,40.04c4.03,2.33,5.41,7.47,3.08,11.5-1.56,2.7-4.39,4.21-7.3,4.21Z"/>
      <path class="st0" d="M124.25,223.11c-2.23,0-4.44-.88-6.08-2.59l-77.63-80.7c-3.64-2.08-5.2-6.53-3.64-10.43,1.56-3.9,5.76-6.05,9.82-5.06l111.15,27.41c3.83.94,6.49,4.42,6.4,8.37l-.85,35.67c-.03,1.41-.42,2.79-1.13,4.01l-.3.53c-.7,1.22-1.7,2.24-2.91,2.98l-30.47,18.57c-1.36.83-2.87,1.23-4.38,1.23h.02ZM71.7,147.84l53.94,56.15,21.07-12.84.59-24.67-75.59-18.64h0Z"/>
      <path class="st0" d="M153.51,322.2c-2.91,0-5.74-1.51-7.3-4.21-2.32-4.02-.95-9.18,3.08-11.5l69.36-40.05c4.02-2.32,9.17-.94,11.5,3.08,2.32,4.02.95,9.18-3.08,11.5l-69.36,40.05c-1.33.76-2.77,1.13-4.2,1.13Z"/>
      <path class="st0" d="M43.42,385.65c-2.51,0-4.97-1.12-6.62-3.21-2.6-3.31-2.36-8.02.55-11.04l79.3-82.55c2.74-2.85,7.08-3.41,10.45-1.36l30.47,18.57c1.2.73,2.2,1.76,2.91,2.98l.3.53c.71,1.22,1.1,2.6,1.13,4.01l.85,35.67c.09,3.95-2.57,7.43-6.4,8.37l-108.7,26.88c-1.33.77-2.79,1.15-4.24,1.15h0ZM124.11,305.39l-53.93,56.14,75.59-18.64-.59-24.66s-21.07-12.84-21.07-12.84Z"/>
      <path class="st0" d="M254.78,382.08c-4.65,0-8.42-3.77-8.42-8.42v-80.09c0-4.65,3.77-8.42,8.42-8.42s8.42,3.77,8.42,8.42v80.09c0,4.65-3.77,8.42-8.42,8.42h0Z"/>
      <path class="st0" d="M254.69,509.14c-3.69,0-7.02-2.43-8.08-6.07l-31.84-109.96c-1.1-3.79.59-7.84,4.05-9.73l31.32-17.1c1.24-.68,2.62-1.03,4.03-1.03h.61c1.41,0,2.8.35,4.03,1.03l31.32,17.1c3.47,1.89,5.15,5.94,4.05,9.73l-31.07,107.3v.28c.02,4.2-3.06,7.77-7.21,8.37-.41.06-.81.09-1.21.09h0ZM232.83,394.91l21.65,74.78,21.65-74.78-21.65-11.83-21.65,11.83h0Z"/>
      <path class="st0" d="M357.28,324.3c-1.43,0-2.88-.36-4.2-1.13l-69.36-40.04c-4.03-2.33-5.41-7.47-3.08-11.5,2.32-4.03,7.48-5.41,11.5-3.08l69.36,40.04c4.03,2.33,5.41,7.47,3.08,11.5-1.56,2.7-4.39,4.21-7.3,4.21Z"/>
      <path class="st0" d="M467.28,387.91c-.67,0-1.35-.08-2.03-.25l-111.14-27.41c-3.83-.94-6.49-4.42-6.4-8.37l.85-35.67c.03-1.4.42-2.77,1.11-3.99l.3-.53c.71-1.23,1.71-2.26,2.92-3l30.47-18.57c3.38-2.05,7.72-1.49,10.45,1.36l77.64,80.71c3.64,2.09,5.19,6.54,3.62,10.44-1.31,3.25-4.44,5.28-7.81,5.28h.02ZM364.71,345.52l75.59,18.64-53.94-56.15-21.07,12.84-.59,24.67h.01Z"/>
      <path class="st0" d="M289.15,246.69c-2.91,0-5.74-1.51-7.3-4.21-2.32-4.03-.95-9.18,3.08-11.5l69.36-40.05c4.03-2.33,9.18-.95,11.5,3.08s.95,9.18-3.08,11.5l-69.36,40.05c-1.33.76-2.77,1.13-4.2,1.13h0Z"/>
      <path class="st0" d="M389.27,225.74c-1.5,0-3.02-.4-4.38-1.23l-30.47-18.57c-1.2-.74-2.2-1.76-2.91-2.98l-.3-.53c-.71-1.22-1.1-2.6-1.13-4.01l-.85-35.67c-.09-3.95,2.57-7.43,6.4-8.37l108.7-26.88c3.63-2.13,8.26-1.23,10.86,2.07,2.6,3.31,2.36,8.02-.56,11.04l-79.3,82.55c-1.63,1.7-3.84,2.59-6.08,2.59h.02ZM366.82,193.77l21.07,12.85,53.93-56.15-75.59,18.64.59,24.66Z"/>
      <path class="st0" d="M185.91,140.94c-.85,0-1.7-.13-2.53-.39l-44.18-13.89c-4.44-1.4-6.9-6.12-5.5-10.56,1.4-4.44,6.11-6.89,10.56-5.51l35.51,11.16,8.53-36.66c1.05-4.53,5.58-7.33,10.11-6.29,4.53,1.06,7.35,5.58,6.29,10.11l-10.59,45.51c-.53,2.28-1.99,4.24-4.02,5.41-1.28.73-2.73,1.11-4.17,1.11h0Z"/>
      <path class="st0" d="M190.33,263.21H57.72c-4.65,0-8.42-3.77-8.42-8.42s3.77-8.42,8.42-8.42h132.6c4.65,0,8.42,3.77,8.42,8.42s-3.77,8.42-8.42,8.42h0Z"/>
      <path class="st0" d="M79.89,294.69c-2.28,0-4.54-.92-6.21-2.73-3.14-3.42-2.91-8.75.51-11.9l27.43-25.17-27.49-25.71c-3.4-3.18-3.57-8.51-.4-11.9,3.18-3.4,8.51-3.57,11.9-.4l34.12,31.92c1.71,1.6,2.68,3.85,2.67,6.19-.01,2.34-1,4.58-2.73,6.16l-34.12,31.32c-1.62,1.48-3.66,2.22-5.69,2.22h.01Z"/>
      <path class="st0" d="M155.8,435.53c-1.43,0-2.88-.36-4.2-1.13-4.03-2.33-5.41-7.47-3.08-11.5l66.3-114.84c2.32-4.02,7.48-5.41,11.5-3.08,4.03,2.33,5.41,7.47,3.08,11.5l-66.3,114.84c-1.56,2.7-4.39,4.21-7.3,4.21Z"/>
      <path class="st0" d="M194.16,432.07c-3.86,0-7.34-2.67-8.21-6.59l-8.09-36.34-36.01,10.95c-4.46,1.34-9.15-1.16-10.5-5.61-1.35-4.45,1.16-9.15,5.61-10.51l44.71-13.59c2.24-.67,4.67-.39,6.69.79,2.02,1.18,3.46,3.16,3.97,5.44l10.06,45.21c1.01,4.54-1.85,9.04-6.39,10.05-.62.14-1.23.2-1.84.2h0Z"/>
      <path class="st0" d="M354.09,436.74c-2.91,0-5.74-1.51-7.3-4.21l-66.3-114.84c-2.32-4.03-.95-9.18,3.08-11.5s9.18-.94,11.5,3.08l66.3,114.84c2.32,4.03.95,9.18-3.08,11.5-1.33.76-2.77,1.13-4.2,1.13Z"/>
      <path class="st0" d="M315.51,433.41c-.63,0-1.27-.07-1.92-.22-4.53-1.06-7.35-5.58-6.29-10.11l10.59-45.51c.53-2.28,1.99-4.24,4.02-5.41,2.04-1.16,4.46-1.42,6.7-.72l44.18,13.89c4.44,1.4,6.9,6.12,5.5,10.56-1.39,4.44-6.12,6.9-10.56,5.51l-35.51-11.17-8.53,36.66c-.9,3.89-4.37,6.51-8.19,6.51h.01Z"/>
      <path class="st0" d="M454.28,265.63h-132.61c-4.65,0-8.42-3.77-8.42-8.42s3.77-8.42,8.42-8.42h132.61c4.65,0,8.42,3.77,8.42,8.42s-3.77,8.42-8.42,8.42h0Z"/>
      <path class="st0" d="M432.1,297.39c-2.06,0-4.13-.75-5.75-2.27l-34.12-31.92c-1.71-1.6-2.68-3.84-2.67-6.19.01-2.34,1-4.58,2.73-6.16l34.12-31.32c3.43-3.14,8.75-2.92,11.9.51,3.14,3.42,2.91,8.75-.51,11.9l-27.43,25.17,27.49,25.72c3.39,3.17,3.57,8.5.39,11.9-1.66,1.77-3.9,2.67-6.15,2.67h0Z"/>
      <path class="st0" d="M289.88,208.15c-1.43,0-2.88-.36-4.2-1.13-4.03-2.33-5.41-7.47-3.08-11.5l66.3-114.84c2.32-4.02,7.48-5.41,11.5-3.08,4.03,2.33,5.41,7.47,3.08,11.5l-66.3,114.84c-1.56,2.7-4.39,4.21-7.3,4.21Z"/>
      <path class="st0" d="M327.9,141.98c-1.48,0-2.94-.39-4.24-1.15-2.02-1.18-3.47-3.16-3.97-5.44l-10.06-45.21c-1.01-4.54,1.85-9.04,6.39-10.05,4.53-1,9.04,1.85,10.05,6.39l8.09,36.34,36.02-10.95c4.45-1.34,9.15,1.16,10.5,5.61s-1.16,9.15-5.61,10.5l-44.71,13.59c-.8.24-1.63.36-2.45.36h-.01Z"/>
      <path class="st0" d="M124.01,41.72c4.12-7.13,13.23-9.57,20.36-5.46,7.13,4.12,9.57,13.23,5.46,20.36-4.12,7.13-13.23,9.57-20.36,5.46-7.13-4.12-9.57-13.23-5.46-20.36Z"/>
      <path class="st0" d="M4.43,263.16c-4.12-7.13-1.67-16.25,5.46-20.36,7.13-4.12,16.25-1.67,20.36,5.46,4.12,7.13,1.67,16.25-5.46,20.36-7.13,4.12-16.25,1.67-20.36-5.46Z"/>
      <circle class="st0" cx="136.42" cy="462.54" r="14.91"/>
      <path class="st0" d="M387.99,470.29c-4.12,7.13-13.23,9.57-20.36,5.46-7.13-4.12-9.57-13.23-5.46-20.36,4.12-7.13,13.23-9.57,20.36-5.46,7.13,4.12,9.57,13.23,5.46,20.36h0Z"/>
      <path class="st0" d="M507.57,248.84c4.12,7.13,1.67,16.25-5.46,20.36-7.13,4.12-16.25,1.67-20.36-5.46-4.12-7.13-1.67-16.25,5.46-20.36,7.13-4.12,16.25-1.67,20.36,5.46h0Z"/>
      <circle class="st0" cx="375.56" cy="49.45" r="14.91"/>
    </g>
  </g>
</svg>